<svg width="508" height="506" viewBox="0 0 508 506" fill="none" xmlns="http://www.w3.org/2000/svg">
<circle cx="200" cy="306" r="200" fill="#D9D9D9"/>
<path fill-rule="evenodd" clip-rule="evenodd" d="M300.943 68.9429C339.02 30.8659 400.753 30.8669 438.829 68.9429C476.905 107.019 476.906 168.752 438.829 206.829C400.752 244.906 339.019 244.905 300.943 206.829C262.867 168.753 262.866 107.02 300.943 68.9429Z" fill="#D9D9D9"/>
<path fill-rule="evenodd" clip-rule="evenodd" d="M386.456 150.564C389.527 147.493 389.584 142.572 386.584 139.572C383.584 136.572 378.663 136.629 375.592 139.7C372.522 142.771 372.464 147.692 375.464 150.692C378.464 153.692 383.385 153.634 386.456 150.564Z" fill="white"/>
<path fill-rule="evenodd" clip-rule="evenodd" d="M368.627 131.623C371.698 128.553 371.755 123.632 368.755 120.632C365.755 117.632 360.834 117.689 357.763 120.76C354.693 123.83 354.635 128.752 357.635 131.751C360.635 134.751 365.557 134.694 368.627 131.623Z" fill="white"/>
<path fill-rule="evenodd" clip-rule="evenodd" d="M388.779 152.542C390.869 149.578 395.855 149.5 399.918 152.367C403.984 155.232 405.592 159.959 403.502 162.923C401.418 165.887 396.428 165.963 392.363 163.098C388.3 160.231 386.695 155.507 388.779 152.542Z" fill="#404040" stroke="#7F7F7F" stroke-width="1.14583" stroke-miterlimit="8"/>
<path fill-rule="evenodd" clip-rule="evenodd" d="M377.554 145.254C374.453 152.289 366.857 155.746 360.593 152.973C354.323 150.201 351.758 142.248 354.859 135.213C357.96 128.179 365.554 124.725 371.823 127.497C378.087 130.27 380.655 138.22 377.554 145.254Z" fill="#ED7D31"/>
<path fill-rule="evenodd" clip-rule="evenodd" d="M359.249 132.701C361.575 130.375 366.726 131.737 370.759 135.743C374.801 139.745 376.185 144.88 373.869 147.201C371.543 149.527 366.392 148.165 362.357 144.156C358.324 140.15 356.933 135.022 359.249 132.701Z" fill="white" stroke="#ED7D31" stroke-width="4.58333" stroke-miterlimit="8"/>
<path fill-rule="evenodd" clip-rule="evenodd" d="M346.732 103.445C349.978 101.648 354.546 103.676 356.93 107.972C359.316 112.271 358.62 117.212 355.374 119.009C352.129 120.807 347.566 118.779 345.179 114.48C342.793 110.181 343.489 105.24 346.732 103.445Z" fill="#404040" stroke="#7F7F7F" stroke-width="1.14583" stroke-miterlimit="8"/>
</svg>
