<svg width="508" height="492" viewBox="0 0 508 492" fill="none" xmlns="http://www.w3.org/2000/svg">
<circle cx="308" cy="292" r="200" fill="#D9D9D9"/>
<g clip-path="url(#clip0_653_128)">
<mask id="mask0_653_128" style="mask-type:luminance" maskUnits="userSpaceOnUse" x="0" y="0" width="276" height="276">
<path d="M137.886 -7.77841e-05L0 137.886L137.886 275.772L275.772 137.886L137.886 -7.77841e-05Z" fill="white"/>
</mask>
<g mask="url(#mask0_653_128)">
<path fill-rule="evenodd" clip-rule="evenodd" d="M68.9429 206.829C30.8659 168.752 30.8669 107.019 68.9429 68.9428C107.019 30.8668 168.752 30.8658 206.829 68.9428C244.906 107.02 244.905 168.753 206.829 206.829C168.753 244.905 107.02 244.906 68.9429 206.829Z" fill="#D9D9D9"/>
<path fill-rule="evenodd" clip-rule="evenodd" d="M150.564 121.316C147.493 118.245 142.572 118.188 139.572 121.188C136.572 124.188 136.63 129.109 139.7 132.18C142.771 135.25 147.692 135.307 150.692 132.308C153.692 129.308 153.635 124.386 150.564 121.316Z" fill="white"/>
<path fill-rule="evenodd" clip-rule="evenodd" d="M131.623 139.144C128.553 136.073 123.632 136.016 120.632 139.016C117.632 142.016 117.689 146.937 120.76 150.008C123.83 153.078 128.752 153.136 131.751 150.136C134.751 147.136 134.694 142.215 131.623 139.144Z" fill="white"/>
<path fill-rule="evenodd" clip-rule="evenodd" d="M152.542 118.993C149.578 116.904 149.499 111.917 152.367 107.854C155.232 103.788 159.959 102.181 162.923 104.27C165.887 106.354 165.963 111.344 163.098 115.409C160.231 119.472 155.507 121.077 152.542 118.993Z" fill="#404040" stroke="#7F7F7F" stroke-width="1.14583" stroke-miterlimit="8"/>
<path fill-rule="evenodd" clip-rule="evenodd" d="M145.254 130.217C152.288 133.318 155.745 140.914 152.973 147.178C150.2 153.448 142.248 156.013 135.213 152.912C128.179 149.811 124.725 142.217 127.497 135.948C130.269 129.684 138.219 127.116 145.254 130.217Z" fill="#ED7D31"/>
<path fill-rule="evenodd" clip-rule="evenodd" d="M133.885 148.483C131.878 146.477 133.37 141.715 137.218 137.844C141.063 133.965 145.81 132.454 147.813 134.452C149.82 136.458 148.328 141.22 144.478 145.093C140.63 148.964 135.888 150.481 133.885 148.483Z" fill="white" stroke="#ED7D31" stroke-width="4.58333" stroke-miterlimit="8"/>
<path fill-rule="evenodd" clip-rule="evenodd" d="M103.445 161.04C101.648 157.794 103.676 153.225 107.972 150.842C112.271 148.455 117.212 149.152 119.01 152.397C120.807 155.643 118.779 160.206 114.48 162.592C110.181 164.979 105.24 164.282 103.445 161.04Z" fill="#404040" stroke="#7F7F7F" stroke-width="1.14583" stroke-miterlimit="8"/>
</g>
</g>
<defs>
<clipPath id="clip0_653_128">
<rect width="195" height="195" fill="white" transform="translate(0 137.886) rotate(-45)"/>
</clipPath>
</defs>
</svg>
