<!--?xml version="1.0" encoding="utf-8"?-->
<!-- Generator: Adobe Illustrator 18.1.1, SVG Export Plug-In . SVG Version: 6.00 Build 0)  -->

<svg version="1.1" id="_x31_0" xmlns="http://www.w3.org/2000/svg" xmlns:xlink="http://www.w3.org/1999/xlink" x="0px" y="0px" viewBox="0 0 512 512" style="width: 256px; height: 256px; opacity: 1;" xml:space="preserve">
<style type="text/css">
	.st0{fill:#374149;}
</style>
<g>
	<path class="st0" d="M204.566,228.961V331.36v0.312l0,0v0.161h102.867V229.434v-0.313l0,0v-0.16H204.566z M241.305,270.992
		c0-8.082,6.613-14.695,14.695-14.695c8.082,0,14.695,6.613,14.695,14.695c0,6.32-3.969,11.61-9.406,13.664v19.84h-10.578v-19.84
		C245.27,282.602,241.305,277.312,241.305,270.992z" style="fill: rgb(75, 75, 75);"></path>
	<path class="st0" d="M0.16,227.785L0.16,227.785H0V439.7c0,14.254,11.461,25.714,25.57,25.714h85.824V227.785H0.5H0.16z" style="fill: rgb(75, 75, 75);"></path>
	<polygon class="st0" points="336.988,227.785 336.988,227.785 336.828,227.785 336.828,360.976 336.824,361.223 175.172,361.223 
		175.172,228.352 175.176,227.945 175.172,227.945 175.172,227.785 141.05,227.785 140.946,227.785 140.946,227.785 
		140.785,227.785 140.785,465.414 371.066,465.414 371.066,227.785 337.09,227.785 	" style="fill: rgb(75, 75, 75);"></polygon>
	<path class="st0" d="M400.621,227.785L400.621,227.785h-0.16v236.746l-0.004,0.726h0.004v0.156h85.821
		c14.258,0,25.718-11.461,25.718-25.714V227.785H400.957H400.621z" style="fill: rgb(75, 75, 75);"></path>
	<path class="st0" d="M111.394,51.602v-0.165c-26.011,6.906-49.23,20.574-67.602,38.942c-26.07,25.93-42.422,61.598-43.57,101.133
		c-0.046,1.414-0.218,2.805-0.222,4.223h0.008c0,0.054-0.008,0.105-0.008,0.16h111.394V80.629l0.039-29.039
		C111.418,51.594,111.406,51.602,111.394,51.602z" style="fill: rgb(75, 75, 75);"></path>
	<path class="st0" d="M149.457,46.586c-2.941,0-5.878,0.149-8.672,0.297v149.012h230.282V46.735c-2.789,0-5.582-0.149-8.523-0.149
		H149.457z" style="fill: rgb(75, 75, 75);"></path>
	<path class="st0" d="M400.461,195.735v0.16H512c0-46.894-21.742-88.695-55.598-116.07c-0.394-0.317-0.758-0.668-1.156-0.981
		c-2.188-1.734-4.477-3.34-6.762-4.949c-1.074-0.762-2.101-1.578-3.199-2.309c-1.762-1.172-3.609-2.222-5.422-3.324
		c-1.695-1.027-3.347-2.114-5.09-3.078c-1.321-0.73-2.707-1.355-4.051-2.047c-2.308-1.187-4.602-2.41-6.984-3.48
		c-0.656-0.297-1.344-0.527-2.004-0.813c-6.785-2.938-13.805-5.473-21.114-7.406v0.047c-0.054-0.012-0.109-0.035-0.16-0.047v143.86
		l-0.004,0.438H400.461z" style="fill: rgb(75, 75, 75);"></path>
</g>
</svg>
