<?xml version="1.0" encoding="UTF-8"?>
<svg id="_レイヤー_2" data-name="レイヤー 2" xmlns="http://www.w3.org/2000/svg" viewBox="0 0 847.8 1007.98">
  <defs>
    <style>
      .cls-1 {
        fill: #9fe1d8;
        stroke-width: 0px;
      }
    </style>
  </defs>
  <g id="_レイヤー_1-2" data-name="レイヤー 1">
    <path class="cls-1" d="M835.22,298.98c9.55-1.97,15.08,2.99,11.47,11.87-5.01,12.33-11.81,23.95-18.61,37.25-.29.58-.2,1.27.22,1.77,12.42,14.64-1.17,26.89-9.79,39.57-4.21,6.17-6.39,10.73-2.04,18.26,5.77,9.98-4.08,32.26-17.35,39.61-7.21,3.99-10.71,7.34-10.57,16.72.17,11.93-9.48,19.51-18.7,26.38-2.42,1.81-4.97,5.33-5.03,8.12-.27,13.5-7.53,21.7-18.39,28.38-3.93,2.42-6.37,7.29-9.41,11.11-.36.44-.03,1.39-.35,1.92-6.32,10.51-18.13,17.14-20.9,30.48-.41,2-6.35,2.85-11.02,4.33-.69.22-1.15.87-1.11,1.6.4,9.34-2.39,17.1-15.05,17.01-1.02-.01-2.43,2.05-3.04,3.42-6.63,14.88-7.73,15.87-19.66,11.82-.77-.26-1.6.1-1.95.84-2.85,6.04-4.73,13.7-9.37,16.18-3.27,1.75-9.44-1.9-15.41-4.48-1.32-.57-2.72.81-2.07,2.1,0,0,0,.02.01.03,3.31,6.47,3.99,12.89-1.93,18.05-6.16,5.37-12.57,4.56-18.79-.6-3.12-2.58-6.54-4.82-11.48-8.26-1.1-.77-2.6.1-2.48,1.44.35,3.93.59,6.28.72,8.64.39,7.65-4.85,12.44-12.41,10.81-5.22-1.13-8.76-1.26-12.51,4.09-2.12,3.04-9.54,5.59-12.63,4.16-11.14-5.14-21.45-12.07-33.01-18.88.2-.44-.32.36-.53,1.23-3.06,12.52-13.96,17.95-26.36,13.77-3.32-1.13-8.74-1.68-10.82.17-8.52,7.6-16.75,5.62-25.76,1.66-4.97-2.2-10.47-5.21-15.95.81-.51.56-.55,1.4-.1,2.01,4.29,5.78,8.83,11.59,12.99,17.65,18.54,26.96,36.28,54.42,48.12,85.13,5.33,13.83,14.69,24.28,26.3,32.72,24.8,18.01,50.04,35.4,74.88,53.36,13.08,9.44,22.74,21.68,29.22,36.7,2.65,6.15,7.41,11.58,11.93,16.71,6.2,7.03,7,13.57,1.09,21.18-1.28,1.66-.99,5.21-.28,7.53.74,2.4,3.3,4.18,4.33,6.55,1.77,4.08,5.36,10.13,3.85,12.22-2.12,2.93-7.33,3.63-13.22,5.63-.88.3-1.32,1.28-.95,2.13,1.55,3.52,3.56,8.1,5.62,12.67,2.49,5.54.93,9.3-5.2,9.79-5.77.47-11.8.82-17.38-.38-6.59-1.41-7.8,1.06-7.03,6.54.75,5.39,1.56,10.77,2.59,17.67.18,1.19-.99,2.14-2.11,1.72-12.66-4.75-24.68-6.25-32.87-16.49-2.57-3.21-4.65-7.47-11.02-4.65-2.31,1.02-7.65-3-10.66-5.75-6.08-5.55-11.19-12.17-17.32-17.66-4.16-3.72-10.63-5.3-13.87-9.51-11.02-14.33-21.5-29.12-31.35-44.27-9.3-14.28-18.52-28.77-25.99-44.04-9.19-18.79-26.18-26.22-43.6-33.47-2.07-.87-5.32,1.24-8.06,1.79-6.87,1.38-13.97,4.4-20.59,3.58-9.31-1.16-16.33.32-21.66,7.99-.36.52-.36,1.22-.02,1.75,4.59,7,10.51,13.86,5.72,23.07-.42.8-1.45,1.08-2.22.61-9.99-6.01-19.32-11.97-29.09-17.09-2.58-1.35-6.34-.44-10.05-.26-.69.03-1.27.52-1.43,1.19-.4,1.56-.77,3.05-1.08,4.23-.16.64.1,1.31.64,1.69,4.34,3,8.26,5.57,11.97,8.41,5.43,4.15,9.02,8.87,8.22,16.68-.38,3.75,1.6,7.73,3.15,12.21.36,1.05-.46,2.14-1.57,2.09-9.7-.42-17.26-2.29-23.83-10.33-7.9-9.67-18.9-16.77-27.24-26.15-9.83-11.07-18.49-23.21-27.09-35.29-1.81-2.55-2.17-7.05-1.48-10.29,1.81-8.6,20.91-22.57,29.91-22.99,3.44-.16,6.86-.97,10.79-1.69.97-.18,1.55-1.2,1.2-2.12-3.41-8.94-8.48-13.69-16.37-17.76-34.8-17.91-72.05-32.63-98.48-63.24-24.14-27.96-47.2-56.85-70.45-85.56-14.57-17.99-17.54-41-26.13-61.58-10.36-24.82-23.16-48.67-35.63-72.56-11.42-21.9-53.36-33.51-77.71-21.37-2.61,1.3-5.87,1.28-10.78,1.93-1.08.14-1.97-.85-1.73-1.91,1.37-6.17,1.62-11.53,4.35-14.83,8.3-10.05,18.02-18.94,27-28.45,5.18-5.5,10.45-11,14.93-17.06,10.17-13.77,23.49-19.66,40.61-20.88,32.96-2.36,59.04,9.88,81.38,33.08,11.67,12.12,24.38,23.23,36.71,34.71,1,.93,2.3,1.54,4.21,2.54,1.04.55,2.3-.2,2.31-1.38.08-7.02.39-13.19-.12-19.29-.86-10.15-1.77-20.4-4.02-30.3-1.35-5.91-5.07-11.37-8.11-16.81-5.89-10.54-11.8-21.08-18.18-31.32-8.43-13.56-5.65-27.97-3.81-42.31.37-2.86,1.15-6.44,3.09-8.21,14.59-13.36,7.98-30.22,5.91-44.91-4.14-29.26-6.5-58.34-5.49-87.89,1.42-41.36-.61-82.6-7.61-123.5-1-5.83-.72-11.87-1.3-17.79-1.02-10.3,3.87-15.93,13.46-18.91,6.92-2.16,11.62-.9,16.38,4.89,12.92,15.73,21.55,33.53,29.03,52.71.57,1.47,2.71,1.29,3.02-.25,3.19-15.72,6.2-31.49,9.85-47.11,2.69-11.57,7.39-21.55,20.91-25.08,7.61-1.98,11.89.07,13.86,6.63,3.64,12.13,6.46,24.51,9.69,36.76.24.91.58,1.78.99,2.78.53,1.28,2.35,1.3,2.91.03,2.68-6.09,4.86-11.68,7.99-16.68,6.15-9.85,16.42-13.4,26.62-10.29,7.58,2.31,14.1,13.14,14.04,23.16-.04,7.31,0,14.61,0,21.57,0,1.13,1.15,1.89,2.19,1.45,4.61-1.94,9.46-4.41,14.58-5.26,13.32-2.2,21.89,2.83,27.34,15.1,6.72,15.11,9.34,30.91,7.12,47.42-.32,2.37-.37,4.78-.48,7.13-.04.81.55,1.51,1.35,1.63,19.06,2.8,20.04,3.52,24.24,23.46,2.45,11.59,3.02,23.57,4.35,35.54.09.79.76,1.41,1.56,1.41,17.71-.04,19.48,9.54,23.64,35.8,1.56,9.88,1.41,18.74,7.51,28.25,5.54,8.65,4.43,21.55,6.32,32.56,1.98,11.56,5.82,23.13,5.64,34.65-.29,18.86-6.62,37.69,2.75,56.29,1.83,3.63,1.47,9.79-.39,13.56-3.7,7.5,1.07,10.97,5.14,15.01,4.99,4.96,10.24,9.65,17.22,16.15.5.47,1.25.57,1.85.23,12.63-7.12,27.93-15.13,42.53-24.26,25.45-15.92,52.37-30.31,75.1-49.55,23.72-20.09,43.8-44.66,64.42-68.2,23.31-26.61,34.08-60.05,47.28-92.07,3.14-7.61,6.2-15.34,10.35-22.4,2.45-4.17,6.25-7.56,10.49-10.73.96-.72,2.36-.15,2.53,1.05,2.67,19.73-9.5,36.27-12.39,54.52-.1.66.23,1.31.81,1.63.14.07.27.15.41.22.65.36,1.45.21,1.94-.33,2.4-2.64,5.09-5.1,6.79-8.13,11.65-20.71,22.87-41.66,34.6-62.33,2.22-3.91,5.39-7.29,9.15-10.29,1.05-.84,2.6-.04,2.56,1.3-.84,26.98-13.66,50.04-23.34,74.01-.31.76.03,1.63.76,2.01.08.04.16.08.24.12.63.32,1.4.19,1.88-.34,1.58-1.72,3.34-3.35,4.38-5.35,7.6-14.64,14.98-29.39,22.4-44.13.59-1.17.53-2.79,1.33-3.7,3.6-4.04,7.34-7.97,11.06-11.91.77-.82,2.12-.6,2.58.43,2.14,4.73,4.72,9.38,5.5,14.32.85,5.32,1.22,8.03,7.78,8.55,3.57.29,8.35,4.82,9.82,8.53,5.65,14.2,3.22,28.55-1.33,42.69-1.22,3.76-1.97,7.69-2.86,11.57-.2.85.33,1.71,1.19,1.9,12.5,2.82,15.78,6.46,13.94,19.41-1.68,11.84-6.25,23.3-9.87,34.82-.91,2.88-2.44,5.57-4.29,9.1-.64,1.23.49,2.63,1.82,2.26,1.25-.34,2.17-.59,3.11-.79Z"/>
  </g>
</svg>