<?xml version="1.0" encoding="UTF-8"?>
<svg id="_レイヤー_2" data-name="レイヤー 2" xmlns="http://www.w3.org/2000/svg" viewBox="0 0 3800 2137.5">
  <defs>
    <style>
      .cls-1 {
        fill: #9fe1d8;
        stroke-width: 0px;
      }
    </style>
  </defs>
  <g id="_レイヤー_1-2" data-name="レイヤー 1">
    <path class="cls-1" d="M0,0v2137.5h3800V0H0ZM2468.51,808.61c-6.89,16.97-16.31,32.94-25.67,51.35,18.32,20.16-.4,36.9-12.2,54.26-5.66,8.29-8.59,14.42-2.74,24.54,7.75,13.41-5.48,43.35-23.32,53.23-9.69,5.36-14.39,9.86-14.2,22.47.23,16.03-12.74,26.22-25.13,35.45-3.25,2.43-6.68,7.16-6.76,10.91-.36,18.14-10.12,29.16-24.71,38.14-5.28,3.25-8.56,9.8-12.65,14.93-.48.59-.04,1.87-.47,2.58-8.49,14.12-24.36,23.03-28.09,40.96-.6,2.92-9.97,4.02-16.39,6.36.93,13.25-2.39,24.61-20.13,24.47-1.37-.01-3.27,2.75-4.09,4.6-9.23,20.71-10.48,21.39-28.18,15.28-4.34,8.32-6.76,19.9-13.45,23.48-5.16,2.77-15.71-4.5-24.89-7.67.52,1.73.77,3.23,1.41,4.5,4.45,8.69,5.36,17.32-2.59,24.26-8.28,7.22-16.89,6.13-25.25-.81-4.95-4.09-10.44-7.53-19.16-13.73.7,8.21,1.16,12.19,1.37,16.18.52,10.28-6.52,16.72-16.68,14.53-7.01-1.52-11.77-1.69-16.81,5.5-2.85,4.09-12.82,7.51-16.97,5.59-14.97-6.91-28.83-16.22-44.36-25.37.27-.59-.43.48-.71,1.65-4.11,16.82-18.76,24.12-35.42,18.5-4.46-1.52-11.75-2.26-14.54.23-11.45,10.21-22.51,7.55-34.62,2.23-7.03-3.1-14.84-7.42-22.58,2.43,6.06,8.21,12.54,16.46,18.46,25.08,24.91,36.23,48.75,73.13,64.67,114.4,7.16,18.59,19.74,32.63,35.34,43.97,33.33,24.2,67.25,47.57,100.63,71.71,17.58,12.69,30.56,29.13,39.27,49.32,3.56,8.26,9.96,15.56,16.03,22.46,8.33,9.45,9.41,18.24,1.46,28.46-1.72,2.23-1.33,7-.38,10.12.99,3.23,4.44,5.62,5.82,8.8,2.38,5.48,7.2,13.61,5.17,16.42-3.1,4.3-11.17,5.03-19.96,8.35,2.18,4.92,5.28,12.03,8.47,19.11,3.35,7.44,1.25,12.5-6.99,13.16-7.75.63-15.86,1.1-23.36-.51-8.86-1.89-10.48,1.42-9.45,8.79,1.14,8.16,2.38,16.3,4.02,27.37-18.24-7.49-35.81-8.82-47.55-23.48-3.45-4.31-6.25-10.04-14.81-6.25-3.1,1.37-10.28-4.03-14.33-7.73-8.17-7.46-15.04-16.35-23.28-23.73-5.59-5-14.28-7.12-18.64-12.78-14.81-19.26-28.89-39.13-42.13-59.49-12.5-19.19-24.89-38.66-34.93-59.18-12.35-25.25-35.18-35.24-58.59-44.98-2.78-1.17-7.15,1.67-10.83,2.41-9.23,1.85-18.77,5.91-27.67,4.81-12.97-1.61-22.63.58-29.89,11.91,6.54,10.31,16.05,20.22,7.34,34.12-14.14-8.45-27.23-16.89-40.96-24.08-3.82-2-9.58-.31-15.04-.31-.86,3.36-1.68,6.61-2.2,8.67,6.32,4.41,11.97,8.06,17.31,12.15,7.3,5.58,12.12,11.92,11.05,22.42-.59,5.83,3.08,12.09,5.16,19.32-14.51-.32-25.56-2.35-35.06-13.98-10.62-12.99-25.4-22.54-36.61-35.14-13.21-14.88-24.85-31.19-36.4-47.42-2.43-3.43-2.92-9.47-1.99-13.83,2.43-11.56,28.1-30.33,40.19-30.89,5.33-.26,10.63-1.65,16.97-2.7-4.58-13.6-11.57-20.47-22.87-26.29-46.77-24.07-96.82-43.85-132.34-84.98-32.44-37.57-63.43-76.4-94.67-114.98-19.58-24.18-23.57-55.1-35.11-82.75-13.92-33.35-31.12-65.4-47.88-97.51-15.35-29.43-71.71-45.03-104.43-28.72-4.02,2-9.19,1.68-17.55,3.04,2.55-9.55,2.47-17.98,6.58-22.95,11.15-13.51,24.22-25.45,36.28-38.23,6.96-7.39,14.04-14.78,20.06-22.93,13.67-18.5,31.57-26.42,54.57-28.06,44.29-3.17,79.34,13.28,109.36,44.45,15.68,16.29,32.76,31.22,49.33,46.64,1.83,1.69,4.39,2.61,8.75,5.11,0-10.94.63-20.27-.15-29.47-1.16-13.64-2.38-27.41-5.4-40.72-1.81-7.94-6.81-15.28-10.9-22.59-7.92-14.16-15.86-28.33-24.43-42.09-11.33-18.22-7.59-37.59-5.12-56.86.5-3.84,1.55-8.65,4.15-11.03,19.61-17.95,10.72-40.61,7.94-60.35-5.56-39.32-8.73-78.4-7.38-118.11,1.91-55.58-.82-111-10.23-165.96-1.34-7.83-.97-15.95-1.75-23.91-1.37-13.84,5.2-21.41,18.09-25.41,9.3-2.9,15.62-1.21,22.01,6.57,18.88,22.98,30.94,49.25,41.61,77.63,4.84-23.49,9.23-47.09,14.69-70.44,3.61-15.55,9.93-28.96,28.1-33.7,10.23-2.66,15.98.09,18.63,8.91,4.89,16.3,8.68,32.94,13.02,49.4.63,2.41,1.79,4.66,3.21,8.26,4.62-9.93,7.81-18.98,12.77-26.9,8.26-13.24,22.07-18.01,35.77-13.83,10.19,3.1,18.95,17.66,18.87,31.12-.05,10.93,0,21.85,0,32.12,7.07-2.67,14.55-6.93,22.54-8.25,17.9-2.96,29.42,3.8,36.74,20.29,9.03,20.31,12.55,41.54,9.57,63.73-.51,3.83-.51,7.74-.74,11.49,27.47,4.02,28.7,4.35,34.5,31.81,3.43,16.19,4.11,32.95,6.06,49.68,25.55-.73,27.91,11.88,33.64,48.08,2.1,13.28,1.89,25.18,10.09,37.96,7.44,11.62,5.95,28.96,8.49,43.76,2.66,15.53,7.82,31.08,7.58,46.56-.39,25.34-8.9,50.65,3.7,75.65,2.46,4.88,1.98,13.16-.52,18.22-4.97,10.08,1.44,14.74,6.91,20.17,6.97,6.93,14.33,13.48,24.28,22.76,17.23-9.76,38.35-20.76,58.5-33.35,34.2-21.39,70.38-40.73,100.92-66.59,31.88-27,58.86-60.02,86.57-91.65,31.32-35.76,45.8-80.7,63.54-123.73,4.22-10.23,8.33-20.61,13.91-30.1,3.83-6.52,10.11-11.61,16.91-16.48,5.71,28.6-12.7,52.02-16.29,78.2,1.12.62,2.23,1.22,3.33,1.84,3.47-4.04,7.7-7.65,10.25-12.2,15.66-27.83,30.73-55.98,46.5-83.76,3.66-6.44,9.22-11.8,15.79-16.46.2,38.85-18.56,71.51-32.15,105.65,1.18.59,2.37,1.2,3.53,1.8,2.35-2.78,5.32-5.24,6.95-8.4,10.21-19.67,20.13-39.5,30.1-59.3.79-1.57.71-3.75,1.79-4.97,5.55-6.24,11.36-12.26,17.07-18.36,3.02,7.38,7.45,14.51,8.65,22.17,1.14,7.15,1.64,10.79,10.46,11.49,4.8.39,11.22,6.48,13.2,11.46,7.59,19.08,4.33,38.37-1.79,57.37-1.85,5.74-2.92,11.75-4.34,17.64,18.52,3.87,23.4,8.44,20.82,26.54-2.26,15.91-8.4,31.31-13.26,46.79-1.56,4.96-4.5,9.49-7.96,16.53,4.46-1.18,6.61-1.87,8.82-2.32,12.83-2.65,20.27,4.02,15.41,15.95Z"/>
  </g>
</svg>