<svg width="195" height="273" viewBox="0 0 195 273" fill="none" xmlns="http://www.w3.org/2000/svg">
<path fill-rule="evenodd" clip-rule="evenodd" d="M0 97.5C0 43.6509 43.6524 0 97.5 0C151.348 0 195 43.6509 195 97.5C195 151.349 151.348 195 97.5 195C43.6524 195 0 151.349 0 97.5Z" fill="#D9D9D9"/>
<path fill-rule="evenodd" clip-rule="evenodd" d="M118.182 94.7476C118.182 90.4051 114.742 86.8848 110.5 86.8848C106.257 86.8848 102.818 90.4051 102.818 94.7476C102.818 99.0902 106.257 102.611 110.5 102.611C114.742 102.611 118.182 99.0902 118.182 94.7476Z" fill="white"/>
<path fill-rule="evenodd" clip-rule="evenodd" d="M92.1816 93.9616C92.1816 89.619 88.7424 86.0986 84.4998 86.0986C80.2572 86.0986 76.8179 89.619 76.8179 93.9616C76.8179 98.3042 80.2572 101.825 84.4998 101.825C88.7424 101.825 92.1816 98.3042 92.1816 93.9616Z" fill="white"/>
<path fill-rule="evenodd" clip-rule="evenodd" d="M121.223 94.5046C120.605 90.9309 124.075 87.3494 128.976 86.5041C133.877 85.6549 138.356 87.8604 138.974 91.4341C139.597 95.0039 136.122 98.5855 131.221 99.4347C126.321 100.28 121.846 98.0744 121.223 94.5046Z" fill="#404040" stroke="#7F7F7F" stroke-width="1.14583" stroke-miterlimit="8"/>
<path fill-rule="evenodd" clip-rule="evenodd" d="M108.132 97.2875C110.914 104.454 107.986 112.27 101.597 114.739C95.2032 117.212 87.7656 113.402 84.9844 106.235C82.2032 99.0684 85.1302 91.2566 91.5238 88.7837C97.9135 86.3148 105.351 90.1204 108.132 97.2875Z" fill="#ED7D31"/>
<path fill-rule="evenodd" clip-rule="evenodd" d="M87 104.028C87 101.816 91.0256 100.013 95.9948 100C100.967 99.9812 104.997 101.765 105 103.972C105 106.184 100.974 107.987 96.0017 108C91.0325 108.013 87.0034 106.235 87 104.028Z" fill="white" stroke="#ED7D31" stroke-width="4.58333" stroke-miterlimit="8"/>
<path fill-rule="evenodd" clip-rule="evenodd" d="M56.7747 89.519C57.7989 85.9532 62.4631 84.1565 67.1865 85.5089C71.9137 86.8614 74.9156 90.8479 73.8913 94.4137C72.8671 97.9795 68.2067 99.7722 63.4794 98.4198C58.7522 97.0674 55.7504 93.0809 56.7747 89.519Z" fill="#404040" stroke="#7F7F7F" stroke-width="1.14583" stroke-miterlimit="8"/>
<path d="M97.5 273L18.2587 154.5H176.741L97.5 273Z" fill="#D9D9D9"/>
</svg>
