<?xml version="1.0" encoding="UTF-8"?>
<svg id="_レイヤー_2" data-name="レイヤー 2" xmlns="http://www.w3.org/2000/svg" viewBox="0 0 870.61 1256.79">
  <defs>
    <style>
      .cls-1 {
        fill: #fdfdfd;
        stroke-width: 0px;
      }
    </style>
  </defs>
  <g id="_レイヤー_1-2" data-name="レイヤー 1">
    <g>
      <path class="cls-1" d="M870.61,744.5c0-50.11-48.85-92.98-117.94-110.43,6.9-11.13,10.69-23.26,10.69-35.94,0-17.5-7.22-33.93-19.85-48.16,52.51-25.67,86.35-65.98,86.35-111.33,0-49.04-39.58-92.19-99.54-117.3,22.06-19.68,35.04-43.76,35.04-69.76,0-52.5-52.9-97.14-126.68-113.61.61-4.01.93-8.07.93-12.18C639.6,56.32,550.95,0,441.6,0c-90.42,0-166.68,38.51-190.38,91.12-9.88-.86-19.96-1.31-30.22-1.31C98.94,89.81,0,152.66,0,230.2c0,60.56,60.35,112.16,144.92,131.86-25.89,21.14-41.31,47.71-41.31,76.57,0,16.89,5.29,32.98,14.85,47.68-51.26,18.09-85.96,52.83-85.96,92.72,0,49.87,54.22,91.69,127.26,102.99-27.62,23.44-43.99,52.54-43.99,84.07,0,24.04,9.51,46.66,26.27,66.44-32.44,17.99-52.94,44.46-52.94,73.96,0,42.14,41.8,78.07,100.49,91.98-25.3,10.12-42.12,28.02-42.12,48.42,0,31.58,40.29,57.18,90,57.18s90-25.6,90-57.18c0-19.26-14.99-36.29-37.96-46.65,20.78-4.1,39.68-10.92,55.67-19.8,38.98,39.89,108.54,66.45,187.88,66.45,122.06,0,221-62.86,221-140.4,0-17.15-4.85-33.58-13.71-48.77,75.53-15.26,130.26-60.18,130.26-113.22Z"/>
      <ellipse class="cls-1" cx="197.47" cy="1161.37" rx="50" ry="31.76"/>
      <ellipse class="cls-1" cx="177.47" cy="1237.73" rx="30" ry="19.06"/>
    </g>
  </g>
</svg>