<?xml version="1.0" encoding="UTF-8"?>
<svg id="_レイヤー_2" data-name="レイヤー 2" xmlns="http://www.w3.org/2000/svg" viewBox="0 0 3280.99 726.98">
  <defs>
    <style>
      .cls-1 {
        fill: #fdfdfd;
        stroke-width: 0px;
      }
    </style>
  </defs>
  <g id="_レイヤー_1-2" data-name="レイヤー 1">
    <g>
      <path class="cls-1" d="M3131.58,209.28c9.51-15.26,14.73-31.85,14.73-49.18,0-75.55-98.95-136.79-221-136.79-76.24,0-143.47,23.9-183.19,60.25-62.03-37.8-148.3-61.25-243.7-61.25-76.15,0-146.47,14.94-203.31,40.19-64.91-34.58-150.37-55.59-244.01-55.59-78.03,0-150.39,14.59-209.9,39.46-37.97-28.37-94.55-46.37-157.76-46.37-80.52,0-150.29,29.21-184.52,71.85-53.92-18.62-116.46-29.27-183.14-29.27-39.92,0-78.35,3.82-114.34,10.88-36.27-29.08-92.34-47.74-155.28-47.74s-113.95,17.02-150.26,43.88c-60.89-26.83-136.06-42.68-217.4-42.68-158.52,0-293.61,60.2-345.24,144.57-12.77-19.22-40.45-32.54-72.54-32.54-44.23,0-80.09,25.28-80.09,56.47s35.86,56.47,80.09,56.47c19.09,0,36.62-4.72,50.38-12.58-.17,2.72-.25,5.46-.25,8.21,0,20.72,4.76,40.77,13.67,59.78-69.72,19.73-118.96,67.83-118.96,124.05,0,65.03,65.88,119.19,153.14,131.15,17.9,82.98,119.52,146.56,242.2,146.56,91.02,0,170.45-35,212.69-86.96,60.99,50.29,159.84,82.99,271.43,82.99,82.82,0,158.62-18.02,217.14-47.86,31.34,41.56,93.36,69.87,164.77,69.87,41.51,0,79.84-9.57,110.83-25.74,59.61,25.01,132.16,39.68,210.42,39.68,83.89,0,161.21-16.86,223.07-45.23,29.45,22,71.18,35.74,117.47,35.74,62.32,0,116.39-24.89,143.32-61.35,32.51,18.21,73.65,29.1,118.41,29.1,47.61,0,91.14-12.32,124.53-32.68,60.33,49.22,149.51,80.37,249.02,80.37,153.91,0,283.11-74.52,319.05-175.18,113.55-19.22,197.95-91.27,197.95-177.23,0-73.18-61.17-136.27-149.41-165.28Z"/>
      <path class="cls-1" d="M117.96,199.38c-23.47,0-42.5,13.42-42.5,29.97s19.03,29.97,42.5,29.97,42.5-13.42,42.5-29.97-19.03-29.97-42.5-29.97Z"/>
      <path class="cls-1" d="M21,247.04c-11.6,0-21,6.63-21,14.81s9.4,14.81,21,14.81,21-6.63,21-14.81-9.4-14.81-21-14.81Z"/>
    </g>
  </g>
</svg>