<?xml version="1.0" encoding="UTF-8"?>
<svg id="_レイヤー_2" data-name="レイヤー 2" xmlns="http://www.w3.org/2000/svg" viewBox="0 0 70.98 31.02">
  <defs>
    <style>
      .cls-1 {
        fill: #4ebaa5;
        stroke-width: 0px;
      }
    </style>
  </defs>
  <g id="_レイヤー_2-2" data-name=" レイヤー 2">
    <path class="cls-1" d="M23.63,30.14c-.38.58-1.01.88-1.65.88-.39,0-.78-.11-1.12-.34L4.34,19.51l-3.46-2.34c-.05-.03-.1-.07-.15-.12-.1-.08-.19-.17-.27-.27-.12-.15-.23-.31-.3-.49-.03-.06-.05-.12-.07-.18-.03-.11-.06-.23-.07-.35-.01-.08-.02-.17-.02-.25s0-.16.02-.25c0-.07.02-.15.04-.22,0-.06.02-.11.04-.15.02-.06.03-.11.06-.16.05-.13.12-.25.2-.36.05-.07.1-.13.15-.19.11-.12.23-.24.37-.33l3.46-2.34L20.86.34c.91-.62,2.16-.38,2.77.54.62.91.38,2.16-.53,2.78l-11.61,7.85-5.92,4,2.96,2,2.95,2,11.62,7.86c.91.61,1.15,1.86.53,2.77Z"/>
    <path class="cls-1" d="M70.98,15.51c0,1.1-.9,2-2,2H12.1l-2.96-2,2.96-2h56.88c1.1,0,2,.89,2,2Z"/>
    <path class="cls-1" d="M70.98,15.51c0,1.1-.9,2-2,2H12.1l-2.96-2,2.96-2h56.88c1.1,0,2,.89,2,2Z"/>
  </g>
</svg>