<?xml version="1.0" encoding="UTF-8"?>
<svg id="_レイヤー_2" data-name="レイヤー 2" xmlns="http://www.w3.org/2000/svg" viewBox="0 0 1785.11 381.98">
  <defs>
    <style>
      .cls-1 {
        fill: #4ebaa5;
        stroke-width: 0px;
      }
    </style>
  </defs>
  <g id="_レイヤー_2-2" data-name=" レイヤー 2">
    <g>
      <path class="cls-1" d="M697.84,112.95h-30c-1.1,0-2,.9-2,2s.9,2,2,2h30c1.1,0,2-.9,2-2s-.9-2-2-2Z"/>
      <path class="cls-1" d="M697.84,129.29h-30c-1.1,0-2,.9-2,2s.9,2,2,2h30c1.1,0,2-.9,2-2s-.9-2-2-2Z"/>
      <path class="cls-1" d="M697.84,145.63h-30c-1.1,0-2,.9-2,2s.9,2,2,2h30c1.1,0,2-.9,2-2s-.9-2-2-2Z"/>
      <path class="cls-1" d="M697.84,161.97h-30c-1.1,0-2,.9-2,2s.9,2,2,2h30c1.1,0,2-.9,2-2s-.9-2-2-2Z"/>
      <path class="cls-1" d="M697.84,178.31h-30c-1.1,0-2,.9-2,2s.9,2,2,2h30c1.1,0,2-.9,2-2s-.9-2-2-2Z"/>
      <path class="cls-1" d="M697.84,194.65h-30c-1.1,0-2,.9-2,2s.9,2,2,2h30c1.1,0,2-.9,2-2s-.9-2-2-2Z"/>
      <path class="cls-1" d="M697.84,210.99h-30c-1.1,0-2,.9-2,2s.9,2,2,2h30c1.1,0,2-.9,2-2s-.9-2-2-2Z"/>
      <path class="cls-1" d="M697.84,227.33h-30c-1.1,0-2,.9-2,2s.9,2,2,2h30c1.1,0,2-.9,2-2s-.9-2-2-2Z"/>
      <path class="cls-1" d="M697.84,243.67h-30c-1.1,0-2,.9-2,2s.9,2,2,2h30c1.1,0,2-.9,2-2s-.9-2-2-2Z"/>
      <path class="cls-1" d="M697.84,260.01h-30c-1.1,0-2,.9-2,2s.9,2,2,2h30c1.1,0,2-.9,2-2s-.9-2-2-2Z"/>
      <path class="cls-1" d="M697.84,276.35h-30c-1.1,0-2,.9-2,2s.9,2,2,2h30c1.1,0,2-.9,2-2s-.9-2-2-2Z"/>
      <path class="cls-1" d="M697.84,292.7h-30c-1.1,0-2,.9-2,2s.9,2,2,2h30c1.1,0,2-.9,2-2s-.9-2-2-2Z"/>
      <path class="cls-1" d="M697.84,309.04h-30c-1.1,0-2,.9-2,2s.9,2,2,2h30c1.1,0,2-.9,2-2s-.9-2-2-2Z"/>
      <path class="cls-1" d="M697.84,325.38h-30c-1.1,0-2,.9-2,2s.9,2,2,2h30c1.1,0,2-.9,2-2s-.9-2-2-2Z"/>
      <path class="cls-1" d="M697.84,341.72h-30c-1.1,0-2,.9-2,2s.9,2,2,2h30c1.1,0,2-.9,2-2s-.9-2-2-2Z"/>
      <path class="cls-1" d="M697.84,358.06h-30c-1.1,0-2,.9-2,2s.9,2,2,2h30c1.1,0,2-.9,2-2s-.9-2-2-2Z"/>
      <path class="cls-1" d="M756.93,171.99h-21.14c-1.1,0-2,.9-2,2s.9,2,2,2h21.14c1.1,0,2-.9,2-2s-.9-2-2-2Z"/>
      <path class="cls-1" d="M756.93,178.41h-21.14c-1.1,0-2,.9-2,2s.9,2,2,2h21.14c1.1,0,2-.9,2-2s-.9-2-2-2Z"/>
      <path class="cls-1" d="M756.93,184.83h-21.14c-1.1,0-2,.9-2,2s.9,2,2,2h21.14c1.1,0,2-.9,2-2s-.9-2-2-2Z"/>
      <path class="cls-1" d="M756.93,191.24h-21.14c-1.1,0-2,.9-2,2s.9,2,2,2h21.14c1.1,0,2-.9,2-2s-.9-2-2-2Z"/>
      <path class="cls-1" d="M756.93,197.66h-21.14c-1.1,0-2,.9-2,2s.9,2,2,2h21.14c1.1,0,2-.9,2-2s-.9-2-2-2Z"/>
      <path class="cls-1" d="M756.93,204.07h-21.14c-1.1,0-2,.9-2,2s.9,2,2,2h21.14c1.1,0,2-.9,2-2s-.9-2-2-2Z"/>
      <path class="cls-1" d="M756.93,210.49h-21.14c-1.1,0-2,.9-2,2s.9,2,2,2h21.14c1.1,0,2-.9,2-2s-.9-2-2-2Z"/>
      <path class="cls-1" d="M756.93,216.91h-21.14c-1.1,0-2,.9-2,2s.9,2,2,2h21.14c1.1,0,2-.9,2-2s-.9-2-2-2Z"/>
      <path class="cls-1" d="M756.93,223.32h-21.14c-1.1,0-2,.9-2,2s.9,2,2,2h21.14c1.1,0,2-.9,2-2s-.9-2-2-2Z"/>
      <path class="cls-1" d="M756.93,229.74h-21.14c-1.1,0-2,.9-2,2s.9,2,2,2h21.14c1.1,0,2-.9,2-2s-.9-2-2-2Z"/>
      <path class="cls-1" d="M756.93,236.15h-21.14c-1.1,0-2,.9-2,2s.9,2,2,2h21.14c1.1,0,2-.9,2-2s-.9-2-2-2Z"/>
      <path class="cls-1" d="M756.93,242.57h-21.14c-1.1,0-2,.9-2,2s.9,2,2,2h21.14c1.1,0,2-.9,2-2s-.9-2-2-2Z"/>
      <path class="cls-1" d="M756.93,248.98h-21.14c-1.1,0-2,.9-2,2s.9,2,2,2h21.14c1.1,0,2-.9,2-2s-.9-2-2-2Z"/>
      <path class="cls-1" d="M756.93,255.4h-21.14c-1.1,0-2,.9-2,2s.9,2,2,2h21.14c1.1,0,2-.9,2-2s-.9-2-2-2Z"/>
      <path class="cls-1" d="M756.93,261.82h-21.14c-1.1,0-2,.9-2,2s.9,2,2,2h21.14c1.1,0,2-.9,2-2s-.9-2-2-2Z"/>
      <path class="cls-1" d="M756.93,268.23h-21.14c-1.1,0-2,.9-2,2s.9,2,2,2h21.14c1.1,0,2-.9,2-2s-.9-2-2-2Z"/>
      <path class="cls-1" d="M756.93,274.65h-21.14c-1.1,0-2,.9-2,2s.9,2,2,2h21.14c1.1,0,2-.9,2-2s-.9-2-2-2Z"/>
      <path class="cls-1" d="M756.93,281.06h-21.14c-1.1,0-2,.9-2,2s.9,2,2,2h21.14c1.1,0,2-.9,2-2s-.9-2-2-2Z"/>
      <path class="cls-1" d="M756.93,287.48h-21.14c-1.1,0-2,.9-2,2s.9,2,2,2h21.14c1.1,0,2-.9,2-2s-.9-2-2-2Z"/>
      <path class="cls-1" d="M756.93,293.9h-21.14c-1.1,0-2,.9-2,2s.9,2,2,2h21.14c1.1,0,2-.9,2-2s-.9-2-2-2Z"/>
      <path class="cls-1" d="M756.93,300.31h-21.14c-1.1,0-2,.9-2,2s.9,2,2,2h21.14c1.1,0,2-.9,2-2s-.9-2-2-2Z"/>
      <path class="cls-1" d="M756.93,306.73h-21.14c-1.1,0-2,.9-2,2s.9,2,2,2h21.14c1.1,0,2-.9,2-2s-.9-2-2-2Z"/>
      <path class="cls-1" d="M756.93,313.14h-21.14c-1.1,0-2,.9-2,2s.9,2,2,2h21.14c1.1,0,2-.9,2-2s-.9-2-2-2Z"/>
      <path class="cls-1" d="M756.93,319.56h-21.14c-1.1,0-2,.9-2,2s.9,2,2,2h21.14c1.1,0,2-.9,2-2s-.9-2-2-2Z"/>
      <path class="cls-1" d="M756.93,325.98h-21.14c-1.1,0-2,.9-2,2s.9,2,2,2h21.14c1.1,0,2-.9,2-2s-.9-2-2-2Z"/>
      <path class="cls-1" d="M756.93,332.39h-21.14c-1.1,0-2,.9-2,2s.9,2,2,2h21.14c1.1,0,2-.9,2-2s-.9-2-2-2Z"/>
      <path class="cls-1" d="M756.93,338.81h-21.14c-1.1,0-2,.9-2,2s.9,2,2,2h21.14c1.1,0,2-.9,2-2s-.9-2-2-2Z"/>
      <path class="cls-1" d="M756.93,345.22h-21.14c-1.1,0-2,.9-2,2s.9,2,2,2h21.14c1.1,0,2-.9,2-2s-.9-2-2-2Z"/>
      <path class="cls-1" d="M756.93,351.64h-21.14c-1.1,0-2,.9-2,2s.9,2,2,2h21.14c1.1,0,2-.9,2-2s-.9-2-2-2Z"/>
      <path class="cls-1" d="M756.93,358.06h-21.14c-1.1,0-2,.9-2,2s.9,2,2,2h21.14c1.1,0,2-.9,2-2s-.9-2-2-2Z"/>
      <path class="cls-1" d="M756.93,364.47h-21.14c-1.1,0-2,.9-2,2s.9,2,2,2h21.14c1.1,0,2-.9,2-2s-.9-2-2-2Z"/>
      <path class="cls-1" d="M794.99,116.43h30c1.1,0,2-.9,2-2s-.9-2-2-2h-30c-1.1,0-2,.9-2,2s.9,2,2,2Z"/>
      <path class="cls-1" d="M794.99,132.77h30c1.1,0,2-.9,2-2s-.9-2-2-2h-30c-1.1,0-2,.9-2,2s.9,2,2,2Z"/>
      <path class="cls-1" d="M794.99,149.11h30c1.1,0,2-.9,2-2s-.9-2-2-2h-30c-1.1,0-2,.9-2,2s.9,2,2,2Z"/>
      <path class="cls-1" d="M794.99,165.45h30c1.1,0,2-.9,2-2s-.9-2-2-2h-30c-1.1,0-2,.9-2,2s.9,2,2,2Z"/>
      <path class="cls-1" d="M794.99,181.79h30c1.1,0,2-.9,2-2s-.9-2-2-2h-30c-1.1,0-2,.9-2,2s.9,2,2,2Z"/>
      <path class="cls-1" d="M794.99,198.13h30c1.1,0,2-.9,2-2s-.9-2-2-2h-30c-1.1,0-2,.9-2,2s.9,2,2,2Z"/>
      <path class="cls-1" d="M794.99,214.47h30c1.1,0,2-.9,2-2s-.9-2-2-2h-30c-1.1,0-2,.9-2,2s.9,2,2,2Z"/>
      <path class="cls-1" d="M794.99,230.81h30c1.1,0,2-.9,2-2s-.9-2-2-2h-30c-1.1,0-2,.9-2,2s.9,2,2,2Z"/>
      <path class="cls-1" d="M794.99,247.15h30c1.1,0,2-.9,2-2s-.9-2-2-2h-30c-1.1,0-2,.9-2,2s.9,2,2,2Z"/>
      <path class="cls-1" d="M794.99,263.49h30c1.1,0,2-.9,2-2s-.9-2-2-2h-30c-1.1,0-2,.9-2,2s.9,2,2,2Z"/>
      <path class="cls-1" d="M794.99,279.83h30c1.1,0,2-.9,2-2s-.9-2-2-2h-30c-1.1,0-2,.9-2,2s.9,2,2,2Z"/>
      <path class="cls-1" d="M794.99,296.17h30c1.1,0,2-.9,2-2s-.9-2-2-2h-30c-1.1,0-2,.9-2,2s.9,2,2,2Z"/>
      <path class="cls-1" d="M794.99,312.51h30c1.1,0,2-.9,2-2s-.9-2-2-2h-30c-1.1,0-2,.9-2,2s.9,2,2,2Z"/>
      <path class="cls-1" d="M794.99,328.85h30c1.1,0,2-.9,2-2s-.9-2-2-2h-30c-1.1,0-2,.9-2,2s.9,2,2,2Z"/>
      <path class="cls-1" d="M794.99,345.19h30c1.1,0,2-.9,2-2s-.9-2-2-2h-30c-1.1,0-2,.9-2,2s.9,2,2,2Z"/>
      <path class="cls-1" d="M794.99,361.53h30c1.1,0,2-.9,2-2s-.9-2-2-2h-30c-1.1,0-2,.9-2,2s.9,2,2,2Z"/>
      <path class="cls-1" d="M1481.04,328.7c1.1,0,2-.9,2-2s.19-2.27.52-3.32c2.67,2.59,6.31,4.2,10.32,4.2h34.32c4.01,0,7.64-1.6,10.32-4.2.34,1.05.52,2.16.52,3.32s.9,2,2,2,2-.9,2-2c0-2.52-.64-4.9-1.75-6.98,1.11-2.08,1.75-4.46,1.75-6.98,0-1.1-.9-2-2-2s-2,.9-2,2-.19,2.27-.52,3.32c-2.67-2.59-6.31-4.2-10.32-4.2h-34.32c-4.01,0-7.64,1.6-10.32,4.2-.34-1.05-.52-2.16-.52-3.32s-.9-2-2-2-2,.9-2,2c0,2.52.64,4.9,1.75,6.98-1.11,2.08-1.75,4.46-1.75,6.98,0,1.1.9,2,2,2ZM1493.88,315.86h34.32c3.32,0,6.29,1.5,8.28,3.86-1.99,2.36-4.96,3.86-8.28,3.86h-34.32c-3.32,0-6.29-1.5-8.28-3.86,1.99-2.36,4.96-3.86,8.28-3.86Z"/>
      <path class="cls-1" d="M1703.45,250.23h16.34c1.1,0,2-.9,2-2s-.9-2-2-2h-16.34c-1.1,0-2,.9-2,2s.9,2,2,2Z"/>
      <path class="cls-1" d="M1719.79,254.65h-16.34c-1.1,0-2,.9-2,2s.9,2,2,2h16.34c1.1,0,2-.9,2-2s-.9-2-2-2Z"/>
      <path class="cls-1" d="M1719.79,263.08h-16.34c-1.1,0-2,.9-2,2s.9,2,2,2h16.34c1.1,0,2-.9,2-2s-.9-2-2-2Z"/>
      <path class="cls-1" d="M1719.79,271.5h-16.34c-1.1,0-2,.9-2,2s.9,2,2,2h16.34c1.1,0,2-.9,2-2s-.9-2-2-2Z"/>
      <path class="cls-1" d="M1719.79,279.93h-16.34c-1.1,0-2,.9-2,2s.9,2,2,2h16.34c1.1,0,2-.9,2-2s-.9-2-2-2Z"/>
      <path class="cls-1" d="M1719.79,288.35h-16.34c-1.1,0-2,.9-2,2s.9,2,2,2h16.34c1.1,0,2-.9,2-2s-.9-2-2-2Z"/>
      <path class="cls-1" d="M1719.79,296.78h-16.34c-1.1,0-2,.9-2,2s.9,2,2,2h16.34c1.1,0,2-.9,2-2s-.9-2-2-2Z"/>
      <path class="cls-1" d="M1719.79,305.21h-16.34c-1.1,0-2,.9-2,2s.9,2,2,2h16.34c1.1,0,2-.9,2-2s-.9-2-2-2Z"/>
      <path class="cls-1" d="M1719.79,313.63h-16.34c-1.1,0-2,.9-2,2s.9,2,2,2h16.34c1.1,0,2-.9,2-2s-.9-2-2-2Z"/>
      <path class="cls-1" d="M1719.79,322.06h-16.34c-1.1,0-2,.9-2,2s.9,2,2,2h16.34c1.1,0,2-.9,2-2s-.9-2-2-2Z"/>
      <path class="cls-1" d="M1719.79,330.48h-16.34c-1.1,0-2,.9-2,2s.9,2,2,2h16.34c1.1,0,2-.9,2-2s-.9-2-2-2Z"/>
      <path class="cls-1" d="M1719.79,338.91h-16.34c-1.1,0-2,.9-2,2s.9,2,2,2h16.34c1.1,0,2-.9,2-2s-.9-2-2-2Z"/>
      <path class="cls-1" d="M1719.79,347.33h-16.34c-1.1,0-2,.9-2,2s.9,2,2,2h16.34c1.1,0,2-.9,2-2s-.9-2-2-2Z"/>
      <path class="cls-1" d="M1719.79,355.76h-16.34c-1.1,0-2,.9-2,2s.9,2,2,2h16.34c1.1,0,2-.9,2-2s-.9-2-2-2Z"/>
      <path class="cls-1" d="M1727.23,250.23h16.34c1.1,0,2-.9,2-2s-.9-2-2-2h-16.34c-1.1,0-2,.9-2,2s.9,2,2,2Z"/>
      <path class="cls-1" d="M1727.23,258.65h16.34c1.1,0,2-.9,2-2s-.9-2-2-2h-16.34c-1.1,0-2,.9-2,2s.9,2,2,2Z"/>
      <path class="cls-1" d="M1727.23,267.08h16.34c1.1,0,2-.9,2-2s-.9-2-2-2h-16.34c-1.1,0-2,.9-2,2s.9,2,2,2Z"/>
      <path class="cls-1" d="M1727.23,275.5h16.34c1.1,0,2-.9,2-2s-.9-2-2-2h-16.34c-1.1,0-2,.9-2,2s.9,2,2,2Z"/>
      <path class="cls-1" d="M1727.23,283.93h16.34c1.1,0,2-.9,2-2s-.9-2-2-2h-16.34c-1.1,0-2,.9-2,2s.9,2,2,2Z"/>
      <path class="cls-1" d="M1727.23,292.35h16.34c1.1,0,2-.9,2-2s-.9-2-2-2h-16.34c-1.1,0-2,.9-2,2s.9,2,2,2Z"/>
      <path class="cls-1" d="M1727.23,300.78h16.34c1.1,0,2-.9,2-2s-.9-2-2-2h-16.34c-1.1,0-2,.9-2,2s.9,2,2,2Z"/>
      <path class="cls-1" d="M1727.23,309.21h16.34c1.1,0,2-.9,2-2s-.9-2-2-2h-16.34c-1.1,0-2,.9-2,2s.9,2,2,2Z"/>
      <path class="cls-1" d="M1727.23,317.63h16.34c1.1,0,2-.9,2-2s-.9-2-2-2h-16.34c-1.1,0-2,.9-2,2s.9,2,2,2Z"/>
      <path class="cls-1" d="M1727.23,326.06h16.34c1.1,0,2-.9,2-2s-.9-2-2-2h-16.34c-1.1,0-2,.9-2,2s.9,2,2,2Z"/>
      <path class="cls-1" d="M1727.23,334.48h16.34c1.1,0,2-.9,2-2s-.9-2-2-2h-16.34c-1.1,0-2,.9-2,2s.9,2,2,2Z"/>
      <path class="cls-1" d="M1727.23,342.91h16.34c1.1,0,2-.9,2-2s-.9-2-2-2h-16.34c-1.1,0-2,.9-2,2s.9,2,2,2Z"/>
      <path class="cls-1" d="M1727.23,351.33h16.34c1.1,0,2-.9,2-2s-.9-2-2-2h-16.34c-1.1,0-2,.9-2,2s.9,2,2,2Z"/>
      <path class="cls-1" d="M1727.23,359.76h16.34c1.1,0,2-.9,2-2s-.9-2-2-2h-16.34c-1.1,0-2,.9-2,2s.9,2,2,2Z"/>
      <path class="cls-1" d="M1750.85,250.23h16.34c1.1,0,2-.9,2-2s-.9-2-2-2h-16.34c-1.1,0-2,.9-2,2s.9,2,2,2Z"/>
      <path class="cls-1" d="M1750.85,258.65h16.34c1.1,0,2-.9,2-2s-.9-2-2-2h-16.34c-1.1,0-2,.9-2,2s.9,2,2,2Z"/>
      <path class="cls-1" d="M1750.85,267.08h16.34c1.1,0,2-.9,2-2s-.9-2-2-2h-16.34c-1.1,0-2,.9-2,2s.9,2,2,2Z"/>
      <path class="cls-1" d="M1750.85,275.5h16.34c1.1,0,2-.9,2-2s-.9-2-2-2h-16.34c-1.1,0-2,.9-2,2s.9,2,2,2Z"/>
      <path class="cls-1" d="M1750.85,283.93h16.34c1.1,0,2-.9,2-2s-.9-2-2-2h-16.34c-1.1,0-2,.9-2,2s.9,2,2,2Z"/>
      <path class="cls-1" d="M1750.85,292.35h16.34c1.1,0,2-.9,2-2s-.9-2-2-2h-16.34c-1.1,0-2,.9-2,2s.9,2,2,2Z"/>
      <path class="cls-1" d="M1750.85,300.78h16.34c1.1,0,2-.9,2-2s-.9-2-2-2h-16.34c-1.1,0-2,.9-2,2s.9,2,2,2Z"/>
      <path class="cls-1" d="M1750.85,309.21h16.34c1.1,0,2-.9,2-2s-.9-2-2-2h-16.34c-1.1,0-2,.9-2,2s.9,2,2,2Z"/>
      <path class="cls-1" d="M1750.85,317.63h16.34c1.1,0,2-.9,2-2s-.9-2-2-2h-16.34c-1.1,0-2,.9-2,2s.9,2,2,2Z"/>
      <path class="cls-1" d="M1750.85,326.06h16.34c1.1,0,2-.9,2-2s-.9-2-2-2h-16.34c-1.1,0-2,.9-2,2s.9,2,2,2Z"/>
      <path class="cls-1" d="M1750.85,334.48h16.34c1.1,0,2-.9,2-2s-.9-2-2-2h-16.34c-1.1,0-2,.9-2,2s.9,2,2,2Z"/>
      <path class="cls-1" d="M1750.85,342.91h16.34c1.1,0,2-.9,2-2s-.9-2-2-2h-16.34c-1.1,0-2,.9-2,2s.9,2,2,2Z"/>
      <path class="cls-1" d="M1750.85,351.33h16.34c1.1,0,2-.9,2-2s-.9-2-2-2h-16.34c-1.1,0-2,.9-2,2s.9,2,2,2Z"/>
      <path class="cls-1" d="M1750.85,359.76h16.34c1.1,0,2-.9,2-2s-.9-2-2-2h-16.34c-1.1,0-2,.9-2,2s.9,2,2,2Z"/>
      <path class="cls-1" d="M1393.28,250.23h16.34c1.1,0,2-.9,2-2s-.9-2-2-2h-16.34c-1.1,0-2,.9-2,2s.9,2,2,2Z"/>
      <path class="cls-1" d="M1409.62,254.65h-16.34c-1.1,0-2,.9-2,2s.9,2,2,2h16.34c1.1,0,2-.9,2-2s-.9-2-2-2Z"/>
      <path class="cls-1" d="M1409.62,263.08h-16.34c-1.1,0-2,.9-2,2s.9,2,2,2h16.34c1.1,0,2-.9,2-2s-.9-2-2-2Z"/>
      <path class="cls-1" d="M1409.62,271.5h-16.34c-1.1,0-2,.9-2,2s.9,2,2,2h16.34c1.1,0,2-.9,2-2s-.9-2-2-2Z"/>
      <path class="cls-1" d="M1409.62,279.93h-16.34c-1.1,0-2,.9-2,2s.9,2,2,2h16.34c1.1,0,2-.9,2-2s-.9-2-2-2Z"/>
      <path class="cls-1" d="M1409.62,288.35h-16.34c-1.1,0-2,.9-2,2s.9,2,2,2h16.34c1.1,0,2-.9,2-2s-.9-2-2-2Z"/>
      <path class="cls-1" d="M1409.62,296.78h-16.34c-1.1,0-2,.9-2,2s.9,2,2,2h16.34c1.1,0,2-.9,2-2s-.9-2-2-2Z"/>
      <path class="cls-1" d="M1409.62,305.21h-16.34c-1.1,0-2,.9-2,2s.9,2,2,2h16.34c1.1,0,2-.9,2-2s-.9-2-2-2Z"/>
      <path class="cls-1" d="M1409.62,313.63h-16.34c-1.1,0-2,.9-2,2s.9,2,2,2h16.34c1.1,0,2-.9,2-2s-.9-2-2-2Z"/>
      <path class="cls-1" d="M1409.62,322.06h-16.34c-1.1,0-2,.9-2,2s.9,2,2,2h16.34c1.1,0,2-.9,2-2s-.9-2-2-2Z"/>
      <path class="cls-1" d="M1409.62,330.48h-16.34c-1.1,0-2,.9-2,2s.9,2,2,2h16.34c1.1,0,2-.9,2-2s-.9-2-2-2Z"/>
      <path class="cls-1" d="M1409.62,338.91h-16.34c-1.1,0-2,.9-2,2s.9,2,2,2h16.34c1.1,0,2-.9,2-2s-.9-2-2-2Z"/>
      <path class="cls-1" d="M1409.62,347.33h-16.34c-1.1,0-2,.9-2,2s.9,2,2,2h16.34c1.1,0,2-.9,2-2s-.9-2-2-2Z"/>
      <path class="cls-1" d="M1409.62,355.76h-16.34c-1.1,0-2,.9-2,2s.9,2,2,2h16.34c1.1,0,2-.9,2-2s-.9-2-2-2Z"/>
      <path class="cls-1" d="M1417.06,250.23h16.34c1.1,0,2-.9,2-2s-.9-2-2-2h-16.34c-1.1,0-2,.9-2,2s.9,2,2,2Z"/>
      <path class="cls-1" d="M1417.06,258.65h16.34c1.1,0,2-.9,2-2s-.9-2-2-2h-16.34c-1.1,0-2,.9-2,2s.9,2,2,2Z"/>
      <path class="cls-1" d="M1417.06,267.08h16.34c1.1,0,2-.9,2-2s-.9-2-2-2h-16.34c-1.1,0-2,.9-2,2s.9,2,2,2Z"/>
      <path class="cls-1" d="M1417.06,275.5h16.34c1.1,0,2-.9,2-2s-.9-2-2-2h-16.34c-1.1,0-2,.9-2,2s.9,2,2,2Z"/>
      <path class="cls-1" d="M1417.06,283.93h16.34c1.1,0,2-.9,2-2s-.9-2-2-2h-16.34c-1.1,0-2,.9-2,2s.9,2,2,2Z"/>
      <path class="cls-1" d="M1417.06,292.35h16.34c1.1,0,2-.9,2-2s-.9-2-2-2h-16.34c-1.1,0-2,.9-2,2s.9,2,2,2Z"/>
      <path class="cls-1" d="M1417.06,300.78h16.34c1.1,0,2-.9,2-2s-.9-2-2-2h-16.34c-1.1,0-2,.9-2,2s.9,2,2,2Z"/>
      <path class="cls-1" d="M1417.06,309.21h16.34c1.1,0,2-.9,2-2s-.9-2-2-2h-16.34c-1.1,0-2,.9-2,2s.9,2,2,2Z"/>
      <path class="cls-1" d="M1417.06,317.63h16.34c1.1,0,2-.9,2-2s-.9-2-2-2h-16.34c-1.1,0-2,.9-2,2s.9,2,2,2Z"/>
      <path class="cls-1" d="M1417.06,326.06h16.34c1.1,0,2-.9,2-2s-.9-2-2-2h-16.34c-1.1,0-2,.9-2,2s.9,2,2,2Z"/>
      <path class="cls-1" d="M1417.06,334.48h16.34c1.1,0,2-.9,2-2s-.9-2-2-2h-16.34c-1.1,0-2,.9-2,2s.9,2,2,2Z"/>
      <path class="cls-1" d="M1417.06,342.91h16.34c1.1,0,2-.9,2-2s-.9-2-2-2h-16.34c-1.1,0-2,.9-2,2s.9,2,2,2Z"/>
      <path class="cls-1" d="M1417.06,351.33h16.34c1.1,0,2-.9,2-2s-.9-2-2-2h-16.34c-1.1,0-2,.9-2,2s.9,2,2,2Z"/>
      <path class="cls-1" d="M1417.06,359.76h16.34c1.1,0,2-.9,2-2s-.9-2-2-2h-16.34c-1.1,0-2,.9-2,2s.9,2,2,2Z"/>
      <path class="cls-1" d="M1440.69,250.23h16.34c1.1,0,2-.9,2-2s-.9-2-2-2h-16.34c-1.1,0-2,.9-2,2s.9,2,2,2Z"/>
      <path class="cls-1" d="M1440.69,258.65h16.34c1.1,0,2-.9,2-2s-.9-2-2-2h-16.34c-1.1,0-2,.9-2,2s.9,2,2,2Z"/>
      <path class="cls-1" d="M1440.69,267.08h16.34c1.1,0,2-.9,2-2s-.9-2-2-2h-16.34c-1.1,0-2,.9-2,2s.9,2,2,2Z"/>
      <path class="cls-1" d="M1440.69,275.5h16.34c1.1,0,2-.9,2-2s-.9-2-2-2h-16.34c-1.1,0-2,.9-2,2s.9,2,2,2Z"/>
      <path class="cls-1" d="M1440.69,283.93h16.34c1.1,0,2-.9,2-2s-.9-2-2-2h-16.34c-1.1,0-2,.9-2,2s.9,2,2,2Z"/>
      <path class="cls-1" d="M1440.69,292.35h16.34c1.1,0,2-.9,2-2s-.9-2-2-2h-16.34c-1.1,0-2,.9-2,2s.9,2,2,2Z"/>
      <path class="cls-1" d="M1440.69,300.78h16.34c1.1,0,2-.9,2-2s-.9-2-2-2h-16.34c-1.1,0-2,.9-2,2s.9,2,2,2Z"/>
      <path class="cls-1" d="M1440.69,309.21h16.34c1.1,0,2-.9,2-2s-.9-2-2-2h-16.34c-1.1,0-2,.9-2,2s.9,2,2,2Z"/>
      <path class="cls-1" d="M1440.69,317.63h16.34c1.1,0,2-.9,2-2s-.9-2-2-2h-16.34c-1.1,0-2,.9-2,2s.9,2,2,2Z"/>
      <path class="cls-1" d="M1440.69,326.06h16.34c1.1,0,2-.9,2-2s-.9-2-2-2h-16.34c-1.1,0-2,.9-2,2s.9,2,2,2Z"/>
      <path class="cls-1" d="M1440.69,334.48h16.34c1.1,0,2-.9,2-2s-.9-2-2-2h-16.34c-1.1,0-2,.9-2,2s.9,2,2,2Z"/>
      <path class="cls-1" d="M1440.69,342.91h16.34c1.1,0,2-.9,2-2s-.9-2-2-2h-16.34c-1.1,0-2,.9-2,2s.9,2,2,2Z"/>
      <path class="cls-1" d="M1440.69,351.33h16.34c1.1,0,2-.9,2-2s-.9-2-2-2h-16.34c-1.1,0-2,.9-2,2s.9,2,2,2Z"/>
      <path class="cls-1" d="M1440.69,359.76h16.34c1.1,0,2-.9,2-2s-.9-2-2-2h-16.34c-1.1,0-2,.9-2,2s.9,2,2,2Z"/>
      <path class="cls-1" d="M138.52,250.23h16.34c1.1,0,2-.9,2-2s-.9-2-2-2h-16.34c-1.1,0-2,.9-2,2s.9,2,2,2Z"/>
      <path class="cls-1" d="M154.86,254.65h-16.34c-1.1,0-2,.9-2,2s.9,2,2,2h16.34c1.1,0,2-.9,2-2s-.9-2-2-2Z"/>
      <path class="cls-1" d="M154.86,263.08h-16.34c-1.1,0-2,.9-2,2s.9,2,2,2h16.34c1.1,0,2-.9,2-2s-.9-2-2-2Z"/>
      <path class="cls-1" d="M154.86,271.5h-16.34c-1.1,0-2,.9-2,2s.9,2,2,2h16.34c1.1,0,2-.9,2-2s-.9-2-2-2Z"/>
      <path class="cls-1" d="M154.86,279.93h-16.34c-1.1,0-2,.9-2,2s.9,2,2,2h16.34c1.1,0,2-.9,2-2s-.9-2-2-2Z"/>
      <path class="cls-1" d="M154.86,288.35h-16.34c-1.1,0-2,.9-2,2s.9,2,2,2h16.34c1.1,0,2-.9,2-2s-.9-2-2-2Z"/>
      <path class="cls-1" d="M154.86,296.78h-16.34c-1.1,0-2,.9-2,2s.9,2,2,2h16.34c1.1,0,2-.9,2-2s-.9-2-2-2Z"/>
      <path class="cls-1" d="M154.86,305.21h-16.34c-1.1,0-2,.9-2,2s.9,2,2,2h16.34c1.1,0,2-.9,2-2s-.9-2-2-2Z"/>
      <path class="cls-1" d="M154.86,313.63h-16.34c-1.1,0-2,.9-2,2s.9,2,2,2h16.34c1.1,0,2-.9,2-2s-.9-2-2-2Z"/>
      <path class="cls-1" d="M154.86,322.06h-16.34c-1.1,0-2,.9-2,2s.9,2,2,2h16.34c1.1,0,2-.9,2-2s-.9-2-2-2Z"/>
      <path class="cls-1" d="M154.86,330.48h-16.34c-1.1,0-2,.9-2,2s.9,2,2,2h16.34c1.1,0,2-.9,2-2s-.9-2-2-2Z"/>
      <path class="cls-1" d="M154.86,338.91h-16.34c-1.1,0-2,.9-2,2s.9,2,2,2h16.34c1.1,0,2-.9,2-2s-.9-2-2-2Z"/>
      <path class="cls-1" d="M154.86,347.33h-16.34c-1.1,0-2,.9-2,2s.9,2,2,2h16.34c1.1,0,2-.9,2-2s-.9-2-2-2Z"/>
      <path class="cls-1" d="M154.86,355.76h-16.34c-1.1,0-2,.9-2,2s.9,2,2,2h16.34c1.1,0,2-.9,2-2s-.9-2-2-2Z"/>
      <path class="cls-1" d="M162.3,250.23h16.34c1.1,0,2-.9,2-2s-.9-2-2-2h-16.34c-1.1,0-2,.9-2,2s.9,2,2,2Z"/>
      <path class="cls-1" d="M162.3,258.65h16.34c1.1,0,2-.9,2-2s-.9-2-2-2h-16.34c-1.1,0-2,.9-2,2s.9,2,2,2Z"/>
      <path class="cls-1" d="M162.3,267.08h16.34c1.1,0,2-.9,2-2s-.9-2-2-2h-16.34c-1.1,0-2,.9-2,2s.9,2,2,2Z"/>
      <path class="cls-1" d="M162.3,275.5h16.34c1.1,0,2-.9,2-2s-.9-2-2-2h-16.34c-1.1,0-2,.9-2,2s.9,2,2,2Z"/>
      <path class="cls-1" d="M162.3,283.93h16.34c1.1,0,2-.9,2-2s-.9-2-2-2h-16.34c-1.1,0-2,.9-2,2s.9,2,2,2Z"/>
      <path class="cls-1" d="M162.3,292.35h16.34c1.1,0,2-.9,2-2s-.9-2-2-2h-16.34c-1.1,0-2,.9-2,2s.9,2,2,2Z"/>
      <path class="cls-1" d="M162.3,300.78h16.34c1.1,0,2-.9,2-2s-.9-2-2-2h-16.34c-1.1,0-2,.9-2,2s.9,2,2,2Z"/>
      <path class="cls-1" d="M162.3,309.21h16.34c1.1,0,2-.9,2-2s-.9-2-2-2h-16.34c-1.1,0-2,.9-2,2s.9,2,2,2Z"/>
      <path class="cls-1" d="M162.3,317.63h16.34c1.1,0,2-.9,2-2s-.9-2-2-2h-16.34c-1.1,0-2,.9-2,2s.9,2,2,2Z"/>
      <path class="cls-1" d="M162.3,326.06h16.34c1.1,0,2-.9,2-2s-.9-2-2-2h-16.34c-1.1,0-2,.9-2,2s.9,2,2,2Z"/>
      <path class="cls-1" d="M162.3,334.48h16.34c1.1,0,2-.9,2-2s-.9-2-2-2h-16.34c-1.1,0-2,.9-2,2s.9,2,2,2Z"/>
      <path class="cls-1" d="M162.3,342.91h16.34c1.1,0,2-.9,2-2s-.9-2-2-2h-16.34c-1.1,0-2,.9-2,2s.9,2,2,2Z"/>
      <path class="cls-1" d="M162.3,351.33h16.34c1.1,0,2-.9,2-2s-.9-2-2-2h-16.34c-1.1,0-2,.9-2,2s.9,2,2,2Z"/>
      <path class="cls-1" d="M162.3,359.76h16.34c1.1,0,2-.9,2-2s-.9-2-2-2h-16.34c-1.1,0-2,.9-2,2s.9,2,2,2Z"/>
      <path class="cls-1" d="M185.92,250.23h16.34c1.1,0,2-.9,2-2s-.9-2-2-2h-16.34c-1.1,0-2,.9-2,2s.9,2,2,2Z"/>
      <path class="cls-1" d="M185.92,258.65h16.34c1.1,0,2-.9,2-2s-.9-2-2-2h-16.34c-1.1,0-2,.9-2,2s.9,2,2,2Z"/>
      <path class="cls-1" d="M185.92,267.08h16.34c1.1,0,2-.9,2-2s-.9-2-2-2h-16.34c-1.1,0-2,.9-2,2s.9,2,2,2Z"/>
      <path class="cls-1" d="M185.92,275.5h16.34c1.1,0,2-.9,2-2s-.9-2-2-2h-16.34c-1.1,0-2,.9-2,2s.9,2,2,2Z"/>
      <path class="cls-1" d="M185.92,283.93h16.34c1.1,0,2-.9,2-2s-.9-2-2-2h-16.34c-1.1,0-2,.9-2,2s.9,2,2,2Z"/>
      <path class="cls-1" d="M185.92,292.35h16.34c1.1,0,2-.9,2-2s-.9-2-2-2h-16.34c-1.1,0-2,.9-2,2s.9,2,2,2Z"/>
      <path class="cls-1" d="M185.92,300.78h16.34c1.1,0,2-.9,2-2s-.9-2-2-2h-16.34c-1.1,0-2,.9-2,2s.9,2,2,2Z"/>
      <path class="cls-1" d="M185.92,309.21h16.34c1.1,0,2-.9,2-2s-.9-2-2-2h-16.34c-1.1,0-2,.9-2,2s.9,2,2,2Z"/>
      <path class="cls-1" d="M185.92,317.63h16.34c1.1,0,2-.9,2-2s-.9-2-2-2h-16.34c-1.1,0-2,.9-2,2s.9,2,2,2Z"/>
      <path class="cls-1" d="M185.92,326.06h16.34c1.1,0,2-.9,2-2s-.9-2-2-2h-16.34c-1.1,0-2,.9-2,2s.9,2,2,2Z"/>
      <path class="cls-1" d="M185.92,334.48h16.34c1.1,0,2-.9,2-2s-.9-2-2-2h-16.34c-1.1,0-2,.9-2,2s.9,2,2,2Z"/>
      <path class="cls-1" d="M185.92,342.91h16.34c1.1,0,2-.9,2-2s-.9-2-2-2h-16.34c-1.1,0-2,.9-2,2s.9,2,2,2Z"/>
      <path class="cls-1" d="M185.92,351.33h16.34c1.1,0,2-.9,2-2s-.9-2-2-2h-16.34c-1.1,0-2,.9-2,2s.9,2,2,2Z"/>
      <path class="cls-1" d="M185.92,359.76h16.34c1.1,0,2-.9,2-2s-.9-2-2-2h-16.34c-1.1,0-2,.9-2,2s.9,2,2,2Z"/>
      <path class="cls-1" d="M534.7,211.07h-20.7c-1.1,0-2,.9-2,2s.9,2,2,2h20.7c1.1,0,2-.9,2-2s-.9-2-2-2Z"/>
      <path class="cls-1" d="M534.7,221.74h-20.7c-1.1,0-2,.9-2,2s.9,2,2,2h20.7c1.1,0,2-.9,2-2s-.9-2-2-2Z"/>
      <path class="cls-1" d="M534.7,232.42h-20.7c-1.1,0-2,.9-2,2s.9,2,2,2h20.7c1.1,0,2-.9,2-2s-.9-2-2-2Z"/>
      <path class="cls-1" d="M534.7,243.09h-20.7c-1.1,0-2,.9-2,2s.9,2,2,2h20.7c1.1,0,2-.9,2-2s-.9-2-2-2Z"/>
      <path class="cls-1" d="M534.7,253.76h-20.7c-1.1,0-2,.9-2,2s.9,2,2,2h20.7c1.1,0,2-.9,2-2s-.9-2-2-2Z"/>
      <path class="cls-1" d="M534.7,264.44h-20.7c-1.1,0-2,.9-2,2s.9,2,2,2h20.7c1.1,0,2-.9,2-2s-.9-2-2-2Z"/>
      <path class="cls-1" d="M534.7,275.11h-20.7c-1.1,0-2,.9-2,2s.9,2,2,2h20.7c1.1,0,2-.9,2-2s-.9-2-2-2Z"/>
      <path class="cls-1" d="M534.7,285.79h-20.7c-1.1,0-2,.9-2,2s.9,2,2,2h20.7c1.1,0,2-.9,2-2s-.9-2-2-2Z"/>
      <path class="cls-1" d="M534.7,296.46h-20.7c-1.1,0-2,.9-2,2s.9,2,2,2h20.7c1.1,0,2-.9,2-2s-.9-2-2-2Z"/>
      <path class="cls-1" d="M534.7,307.13h-20.7c-1.1,0-2,.9-2,2s.9,2,2,2h20.7c1.1,0,2-.9,2-2s-.9-2-2-2Z"/>
      <path class="cls-1" d="M534.7,317.81h-20.7c-1.1,0-2,.9-2,2s.9,2,2,2h20.7c1.1,0,2-.9,2-2s-.9-2-2-2Z"/>
      <path class="cls-1" d="M534.7,328.48h-20.7c-1.1,0-2,.9-2,2s.9,2,2,2h20.7c1.1,0,2-.9,2-2s-.9-2-2-2Z"/>
      <path class="cls-1" d="M534.7,339.16h-20.7c-1.1,0-2,.9-2,2s.9,2,2,2h20.7c1.1,0,2-.9,2-2s-.9-2-2-2Z"/>
      <path class="cls-1" d="M534.7,349.83h-20.7c-1.1,0-2,.9-2,2s.9,2,2,2h20.7c1.1,0,2-.9,2-2s-.9-2-2-2Z"/>
      <path class="cls-1" d="M564.83,211.07h-20.7c-1.1,0-2,.9-2,2s.9,2,2,2h20.7c1.1,0,2-.9,2-2s-.9-2-2-2Z"/>
      <path class="cls-1" d="M564.83,221.74h-20.7c-1.1,0-2,.9-2,2s.9,2,2,2h20.7c1.1,0,2-.9,2-2s-.9-2-2-2Z"/>
      <path class="cls-1" d="M564.83,232.42h-20.7c-1.1,0-2,.9-2,2s.9,2,2,2h20.7c1.1,0,2-.9,2-2s-.9-2-2-2Z"/>
      <path class="cls-1" d="M564.83,243.09h-20.7c-1.1,0-2,.9-2,2s.9,2,2,2h20.7c1.1,0,2-.9,2-2s-.9-2-2-2Z"/>
      <path class="cls-1" d="M564.83,253.76h-20.7c-1.1,0-2,.9-2,2s.9,2,2,2h20.7c1.1,0,2-.9,2-2s-.9-2-2-2Z"/>
      <path class="cls-1" d="M564.83,264.44h-20.7c-1.1,0-2,.9-2,2s.9,2,2,2h20.7c1.1,0,2-.9,2-2s-.9-2-2-2Z"/>
      <path class="cls-1" d="M564.83,275.11h-20.7c-1.1,0-2,.9-2,2s.9,2,2,2h20.7c1.1,0,2-.9,2-2s-.9-2-2-2Z"/>
      <path class="cls-1" d="M564.83,285.79h-20.7c-1.1,0-2,.9-2,2s.9,2,2,2h20.7c1.1,0,2-.9,2-2s-.9-2-2-2Z"/>
      <path class="cls-1" d="M564.83,296.46h-20.7c-1.1,0-2,.9-2,2s.9,2,2,2h20.7c1.1,0,2-.9,2-2s-.9-2-2-2Z"/>
      <path class="cls-1" d="M564.83,307.13h-20.7c-1.1,0-2,.9-2,2s.9,2,2,2h20.7c1.1,0,2-.9,2-2s-.9-2-2-2Z"/>
      <path class="cls-1" d="M564.83,317.81h-20.7c-1.1,0-2,.9-2,2s.9,2,2,2h20.7c1.1,0,2-.9,2-2s-.9-2-2-2Z"/>
      <path class="cls-1" d="M564.83,328.48h-20.7c-1.1,0-2,.9-2,2s.9,2,2,2h20.7c1.1,0,2-.9,2-2s-.9-2-2-2Z"/>
      <path class="cls-1" d="M564.83,339.16h-20.7c-1.1,0-2,.9-2,2s.9,2,2,2h20.7c1.1,0,2-.9,2-2s-.9-2-2-2Z"/>
      <path class="cls-1" d="M564.83,349.83h-20.7c-1.1,0-2,.9-2,2s.9,2,2,2h20.7c1.1,0,2-.9,2-2s-.9-2-2-2Z"/>
      <path class="cls-1" d="M594.76,211.07h-20.7c-1.1,0-2,.9-2,2s.9,2,2,2h20.7c1.1,0,2-.9,2-2s-.9-2-2-2Z"/>
      <path class="cls-1" d="M594.76,221.74h-20.7c-1.1,0-2,.9-2,2s.9,2,2,2h20.7c1.1,0,2-.9,2-2s-.9-2-2-2Z"/>
      <path class="cls-1" d="M594.76,232.42h-20.7c-1.1,0-2,.9-2,2s.9,2,2,2h20.7c1.1,0,2-.9,2-2s-.9-2-2-2Z"/>
      <path class="cls-1" d="M594.76,243.09h-20.7c-1.1,0-2,.9-2,2s.9,2,2,2h20.7c1.1,0,2-.9,2-2s-.9-2-2-2Z"/>
      <path class="cls-1" d="M594.76,253.76h-20.7c-1.1,0-2,.9-2,2s.9,2,2,2h20.7c1.1,0,2-.9,2-2s-.9-2-2-2Z"/>
      <path class="cls-1" d="M594.76,264.44h-20.7c-1.1,0-2,.9-2,2s.9,2,2,2h20.7c1.1,0,2-.9,2-2s-.9-2-2-2Z"/>
      <path class="cls-1" d="M594.76,275.11h-20.7c-1.1,0-2,.9-2,2s.9,2,2,2h20.7c1.1,0,2-.9,2-2s-.9-2-2-2Z"/>
      <path class="cls-1" d="M594.76,285.79h-20.7c-1.1,0-2,.9-2,2s.9,2,2,2h20.7c1.1,0,2-.9,2-2s-.9-2-2-2Z"/>
      <path class="cls-1" d="M594.76,296.46h-20.7c-1.1,0-2,.9-2,2s.9,2,2,2h20.7c1.1,0,2-.9,2-2s-.9-2-2-2Z"/>
      <path class="cls-1" d="M594.76,307.13h-20.7c-1.1,0-2,.9-2,2s.9,2,2,2h20.7c1.1,0,2-.9,2-2s-.9-2-2-2Z"/>
      <path class="cls-1" d="M594.76,317.81h-20.7c-1.1,0-2,.9-2,2s.9,2,2,2h20.7c1.1,0,2-.9,2-2s-.9-2-2-2Z"/>
      <path class="cls-1" d="M594.76,328.48h-20.7c-1.1,0-2,.9-2,2s.9,2,2,2h20.7c1.1,0,2-.9,2-2s-.9-2-2-2Z"/>
      <path class="cls-1" d="M594.76,339.16h-20.7c-1.1,0-2,.9-2,2s.9,2,2,2h20.7c1.1,0,2-.9,2-2s-.9-2-2-2Z"/>
      <path class="cls-1" d="M594.76,349.83h-20.7c-1.1,0-2,.9-2,2s.9,2,2,2h20.7c1.1,0,2-.9,2-2s-.9-2-2-2Z"/>
      <path class="cls-1" d="M42.61,211.07h-20.7c-1.1,0-2,.9-2,2s.9,2,2,2h20.7c1.1,0,2-.9,2-2s-.9-2-2-2Z"/>
      <path class="cls-1" d="M42.61,221.74h-20.7c-1.1,0-2,.9-2,2s.9,2,2,2h20.7c1.1,0,2-.9,2-2s-.9-2-2-2Z"/>
      <path class="cls-1" d="M42.61,232.42h-20.7c-1.1,0-2,.9-2,2s.9,2,2,2h20.7c1.1,0,2-.9,2-2s-.9-2-2-2Z"/>
      <path class="cls-1" d="M42.61,243.09h-20.7c-1.1,0-2,.9-2,2s.9,2,2,2h20.7c1.1,0,2-.9,2-2s-.9-2-2-2Z"/>
      <path class="cls-1" d="M42.61,253.76h-20.7c-1.1,0-2,.9-2,2s.9,2,2,2h20.7c1.1,0,2-.9,2-2s-.9-2-2-2Z"/>
      <path class="cls-1" d="M42.61,264.44h-20.7c-1.1,0-2,.9-2,2s.9,2,2,2h20.7c1.1,0,2-.9,2-2s-.9-2-2-2Z"/>
      <path class="cls-1" d="M42.61,275.11h-20.7c-1.1,0-2,.9-2,2s.9,2,2,2h20.7c1.1,0,2-.9,2-2s-.9-2-2-2Z"/>
      <path class="cls-1" d="M42.61,285.79h-20.7c-1.1,0-2,.9-2,2s.9,2,2,2h20.7c1.1,0,2-.9,2-2s-.9-2-2-2Z"/>
      <path class="cls-1" d="M42.61,296.46h-20.7c-1.1,0-2,.9-2,2s.9,2,2,2h20.7c1.1,0,2-.9,2-2s-.9-2-2-2Z"/>
      <path class="cls-1" d="M42.61,307.13h-20.7c-1.1,0-2,.9-2,2s.9,2,2,2h20.7c1.1,0,2-.9,2-2s-.9-2-2-2Z"/>
      <path class="cls-1" d="M42.61,317.81h-20.7c-1.1,0-2,.9-2,2s.9,2,2,2h20.7c1.1,0,2-.9,2-2s-.9-2-2-2Z"/>
      <path class="cls-1" d="M42.61,328.48h-20.7c-1.1,0-2,.9-2,2s.9,2,2,2h20.7c1.1,0,2-.9,2-2s-.9-2-2-2Z"/>
      <path class="cls-1" d="M42.61,339.16h-20.7c-1.1,0-2,.9-2,2s.9,2,2,2h20.7c1.1,0,2-.9,2-2s-.9-2-2-2Z"/>
      <path class="cls-1" d="M42.61,349.83h-20.7c-1.1,0-2,.9-2,2s.9,2,2,2h20.7c1.1,0,2-.9,2-2s-.9-2-2-2Z"/>
      <path class="cls-1" d="M72.74,211.07h-20.7c-1.1,0-2,.9-2,2s.9,2,2,2h20.7c1.1,0,2-.9,2-2s-.9-2-2-2Z"/>
      <path class="cls-1" d="M72.74,221.74h-20.7c-1.1,0-2,.9-2,2s.9,2,2,2h20.7c1.1,0,2-.9,2-2s-.9-2-2-2Z"/>
      <path class="cls-1" d="M72.74,232.42h-20.7c-1.1,0-2,.9-2,2s.9,2,2,2h20.7c1.1,0,2-.9,2-2s-.9-2-2-2Z"/>
      <path class="cls-1" d="M72.74,243.09h-20.7c-1.1,0-2,.9-2,2s.9,2,2,2h20.7c1.1,0,2-.9,2-2s-.9-2-2-2Z"/>
      <path class="cls-1" d="M72.74,253.76h-20.7c-1.1,0-2,.9-2,2s.9,2,2,2h20.7c1.1,0,2-.9,2-2s-.9-2-2-2Z"/>
      <path class="cls-1" d="M72.74,264.44h-20.7c-1.1,0-2,.9-2,2s.9,2,2,2h20.7c1.1,0,2-.9,2-2s-.9-2-2-2Z"/>
      <path class="cls-1" d="M72.74,275.11h-20.7c-1.1,0-2,.9-2,2s.9,2,2,2h20.7c1.1,0,2-.9,2-2s-.9-2-2-2Z"/>
      <path class="cls-1" d="M72.74,285.79h-20.7c-1.1,0-2,.9-2,2s.9,2,2,2h20.7c1.1,0,2-.9,2-2s-.9-2-2-2Z"/>
      <path class="cls-1" d="M72.74,296.46h-20.7c-1.1,0-2,.9-2,2s.9,2,2,2h20.7c1.1,0,2-.9,2-2s-.9-2-2-2Z"/>
      <path class="cls-1" d="M72.74,307.13h-20.7c-1.1,0-2,.9-2,2s.9,2,2,2h20.7c1.1,0,2-.9,2-2s-.9-2-2-2Z"/>
      <path class="cls-1" d="M72.74,317.81h-20.7c-1.1,0-2,.9-2,2s.9,2,2,2h20.7c1.1,0,2-.9,2-2s-.9-2-2-2Z"/>
      <path class="cls-1" d="M72.74,328.48h-20.7c-1.1,0-2,.9-2,2s.9,2,2,2h20.7c1.1,0,2-.9,2-2s-.9-2-2-2Z"/>
      <path class="cls-1" d="M72.74,339.16h-20.7c-1.1,0-2,.9-2,2s.9,2,2,2h20.7c1.1,0,2-.9,2-2s-.9-2-2-2Z"/>
      <path class="cls-1" d="M72.74,349.83h-20.7c-1.1,0-2,.9-2,2s.9,2,2,2h20.7c1.1,0,2-.9,2-2s-.9-2-2-2Z"/>
      <path class="cls-1" d="M102.67,211.07h-20.7c-1.1,0-2,.9-2,2s.9,2,2,2h20.7c1.1,0,2-.9,2-2s-.9-2-2-2Z"/>
      <path class="cls-1" d="M102.67,221.74h-20.7c-1.1,0-2,.9-2,2s.9,2,2,2h20.7c1.1,0,2-.9,2-2s-.9-2-2-2Z"/>
      <path class="cls-1" d="M102.67,232.42h-20.7c-1.1,0-2,.9-2,2s.9,2,2,2h20.7c1.1,0,2-.9,2-2s-.9-2-2-2Z"/>
      <path class="cls-1" d="M102.67,243.09h-20.7c-1.1,0-2,.9-2,2s.9,2,2,2h20.7c1.1,0,2-.9,2-2s-.9-2-2-2Z"/>
      <path class="cls-1" d="M102.67,253.76h-20.7c-1.1,0-2,.9-2,2s.9,2,2,2h20.7c1.1,0,2-.9,2-2s-.9-2-2-2Z"/>
      <path class="cls-1" d="M102.67,264.44h-20.7c-1.1,0-2,.9-2,2s.9,2,2,2h20.7c1.1,0,2-.9,2-2s-.9-2-2-2Z"/>
      <path class="cls-1" d="M102.67,275.11h-20.7c-1.1,0-2,.9-2,2s.9,2,2,2h20.7c1.1,0,2-.9,2-2s-.9-2-2-2Z"/>
      <path class="cls-1" d="M102.67,285.79h-20.7c-1.1,0-2,.9-2,2s.9,2,2,2h20.7c1.1,0,2-.9,2-2s-.9-2-2-2Z"/>
      <path class="cls-1" d="M102.67,296.46h-20.7c-1.1,0-2,.9-2,2s.9,2,2,2h20.7c1.1,0,2-.9,2-2s-.9-2-2-2Z"/>
      <path class="cls-1" d="M102.67,307.13h-20.7c-1.1,0-2,.9-2,2s.9,2,2,2h20.7c1.1,0,2-.9,2-2s-.9-2-2-2Z"/>
      <path class="cls-1" d="M102.67,317.81h-20.7c-1.1,0-2,.9-2,2s.9,2,2,2h20.7c1.1,0,2-.9,2-2s-.9-2-2-2Z"/>
      <path class="cls-1" d="M102.67,328.48h-20.7c-1.1,0-2,.9-2,2s.9,2,2,2h20.7c1.1,0,2-.9,2-2s-.9-2-2-2Z"/>
      <path class="cls-1" d="M102.67,339.16h-20.7c-1.1,0-2,.9-2,2s.9,2,2,2h20.7c1.1,0,2-.9,2-2s-.9-2-2-2Z"/>
      <path class="cls-1" d="M102.67,349.83h-20.7c-1.1,0-2,.9-2,2s.9,2,2,2h20.7c1.1,0,2-.9,2-2s-.9-2-2-2Z"/>
      <path class="cls-1" d="M1145.07,185.38h-16.34c-1.1,0-2,.9-2,2s.9,2,2,2h16.34c1.1,0,2-.9,2-2s-.9-2-2-2Z"/>
      <path class="cls-1" d="M1145.07,193.8h-16.34c-1.1,0-2,.9-2,2s.9,2,2,2h16.34c1.1,0,2-.9,2-2s-.9-2-2-2Z"/>
      <path class="cls-1" d="M1145.07,202.23h-16.34c-1.1,0-2,.9-2,2s.9,2,2,2h16.34c1.1,0,2-.9,2-2s-.9-2-2-2Z"/>
      <path class="cls-1" d="M1145.07,210.65h-16.34c-1.1,0-2,.9-2,2s.9,2,2,2h16.34c1.1,0,2-.9,2-2s-.9-2-2-2Z"/>
      <path class="cls-1" d="M1145.07,219.08h-16.34c-1.1,0-2,.9-2,2s.9,2,2,2h16.34c1.1,0,2-.9,2-2s-.9-2-2-2Z"/>
      <path class="cls-1" d="M1145.07,227.5h-16.34c-1.1,0-2,.9-2,2s.9,2,2,2h16.34c1.1,0,2-.9,2-2s-.9-2-2-2Z"/>
      <path class="cls-1" d="M1145.07,235.93h-16.34c-1.1,0-2,.9-2,2s.9,2,2,2h16.34c1.1,0,2-.9,2-2s-.9-2-2-2Z"/>
      <path class="cls-1" d="M1145.07,244.35h-16.34c-1.1,0-2,.9-2,2s.9,2,2,2h16.34c1.1,0,2-.9,2-2s-.9-2-2-2Z"/>
      <path class="cls-1" d="M1145.07,252.78h-16.34c-1.1,0-2,.9-2,2s.9,2,2,2h16.34c1.1,0,2-.9,2-2s-.9-2-2-2Z"/>
      <path class="cls-1" d="M1145.07,261.21h-16.34c-1.1,0-2,.9-2,2s.9,2,2,2h16.34c1.1,0,2-.9,2-2s-.9-2-2-2Z"/>
      <path class="cls-1" d="M1145.07,269.63h-16.34c-1.1,0-2,.9-2,2s.9,2,2,2h16.34c1.1,0,2-.9,2-2s-.9-2-2-2Z"/>
      <path class="cls-1" d="M1145.07,278.06h-16.34c-1.1,0-2,.9-2,2s.9,2,2,2h16.34c1.1,0,2-.9,2-2s-.9-2-2-2Z"/>
      <path class="cls-1" d="M1145.07,286.48h-16.34c-1.1,0-2,.9-2,2s.9,2,2,2h16.34c1.1,0,2-.9,2-2s-.9-2-2-2Z"/>
      <path class="cls-1" d="M1145.07,294.91h-16.34c-1.1,0-2,.9-2,2s.9,2,2,2h16.34c1.1,0,2-.9,2-2s-.9-2-2-2Z"/>
      <path class="cls-1" d="M1145.07,302.91h-16.34c-1.1,0-2,.9-2,2s.9,2,2,2h16.34c1.1,0,2-.9,2-2s-.9-2-2-2Z"/>
      <path class="cls-1" d="M1145.07,311.33h-16.34c-1.1,0-2,.9-2,2s.9,2,2,2h16.34c1.1,0,2-.9,2-2s-.9-2-2-2Z"/>
      <path class="cls-1" d="M1145.07,319.76h-16.34c-1.1,0-2,.9-2,2s.9,2,2,2h16.34c1.1,0,2-.9,2-2s-.9-2-2-2Z"/>
      <path class="cls-1" d="M1145.07,328.18h-16.34c-1.1,0-2,.9-2,2s.9,2,2,2h16.34c1.1,0,2-.9,2-2s-.9-2-2-2Z"/>
      <path class="cls-1" d="M1170.94,302.91h-16.34c-1.1,0-2,.9-2,2s.9,2,2,2h16.34c1.1,0,2-.9,2-2s-.9-2-2-2Z"/>
      <path class="cls-1" d="M1170.94,311.33h-16.34c-1.1,0-2,.9-2,2s.9,2,2,2h16.34c1.1,0,2-.9,2-2s-.9-2-2-2Z"/>
      <path class="cls-1" d="M1170.94,319.76h-16.34c-1.1,0-2,.9-2,2s.9,2,2,2h16.34c1.1,0,2-.9,2-2s-.9-2-2-2Z"/>
      <path class="cls-1" d="M1170.94,328.18h-16.34c-1.1,0-2,.9-2,2s.9,2,2,2h16.34c1.1,0,2-.9,2-2s-.9-2-2-2Z"/>
      <path class="cls-1" d="M1196.81,302.91h-16.34c-1.1,0-2,.9-2,2s.9,2,2,2h16.34c1.1,0,2-.9,2-2s-.9-2-2-2Z"/>
      <path class="cls-1" d="M1196.81,311.33h-16.34c-1.1,0-2,.9-2,2s.9,2,2,2h16.34c1.1,0,2-.9,2-2s-.9-2-2-2Z"/>
      <path class="cls-1" d="M1196.81,319.76h-16.34c-1.1,0-2,.9-2,2s.9,2,2,2h16.34c1.1,0,2-.9,2-2s-.9-2-2-2Z"/>
      <path class="cls-1" d="M1196.81,328.18h-16.34c-1.1,0-2,.9-2,2s.9,2,2,2h16.34c1.1,0,2-.9,2-2s-.9-2-2-2Z"/>
      <path class="cls-1" d="M1222.68,302.91h-16.34c-1.1,0-2,.9-2,2s.9,2,2,2h16.34c1.1,0,2-.9,2-2s-.9-2-2-2Z"/>
      <path class="cls-1" d="M1222.68,311.33h-16.34c-1.1,0-2,.9-2,2s.9,2,2,2h16.34c1.1,0,2-.9,2-2s-.9-2-2-2Z"/>
      <path class="cls-1" d="M1222.68,319.76h-16.34c-1.1,0-2,.9-2,2s.9,2,2,2h16.34c1.1,0,2-.9,2-2s-.9-2-2-2Z"/>
      <path class="cls-1" d="M1222.68,328.18h-16.34c-1.1,0-2,.9-2,2s.9,2,2,2h16.34c1.1,0,2-.9,2-2s-.9-2-2-2Z"/>
      <path class="cls-1" d="M1170.94,185.38h-16.34c-1.1,0-2,.9-2,2s.9,2,2,2h16.34c1.1,0,2-.9,2-2s-.9-2-2-2Z"/>
      <path class="cls-1" d="M1170.94,193.8h-16.34c-1.1,0-2,.9-2,2s.9,2,2,2h16.34c1.1,0,2-.9,2-2s-.9-2-2-2Z"/>
      <path class="cls-1" d="M1170.94,202.23h-16.34c-1.1,0-2,.9-2,2s.9,2,2,2h16.34c1.1,0,2-.9,2-2s-.9-2-2-2Z"/>
      <path class="cls-1" d="M1170.94,210.65h-16.34c-1.1,0-2,.9-2,2s.9,2,2,2h16.34c1.1,0,2-.9,2-2s-.9-2-2-2Z"/>
      <path class="cls-1" d="M1170.94,219.08h-16.34c-1.1,0-2,.9-2,2s.9,2,2,2h16.34c1.1,0,2-.9,2-2s-.9-2-2-2Z"/>
      <path class="cls-1" d="M1170.94,227.5h-16.34c-1.1,0-2,.9-2,2s.9,2,2,2h16.34c1.1,0,2-.9,2-2s-.9-2-2-2Z"/>
      <path class="cls-1" d="M1170.94,235.93h-16.34c-1.1,0-2,.9-2,2s.9,2,2,2h16.34c1.1,0,2-.9,2-2s-.9-2-2-2Z"/>
      <path class="cls-1" d="M1170.94,244.35h-16.34c-1.1,0-2,.9-2,2s.9,2,2,2h16.34c1.1,0,2-.9,2-2s-.9-2-2-2Z"/>
      <path class="cls-1" d="M1170.94,252.78h-16.34c-1.1,0-2,.9-2,2s.9,2,2,2h16.34c1.1,0,2-.9,2-2s-.9-2-2-2Z"/>
      <path class="cls-1" d="M1170.94,261.21h-16.34c-1.1,0-2,.9-2,2s.9,2,2,2h16.34c1.1,0,2-.9,2-2s-.9-2-2-2Z"/>
      <path class="cls-1" d="M1170.94,269.63h-16.34c-1.1,0-2,.9-2,2s.9,2,2,2h16.34c1.1,0,2-.9,2-2s-.9-2-2-2Z"/>
      <path class="cls-1" d="M1170.94,278.06h-16.34c-1.1,0-2,.9-2,2s.9,2,2,2h16.34c1.1,0,2-.9,2-2s-.9-2-2-2Z"/>
      <path class="cls-1" d="M1170.94,286.48h-16.34c-1.1,0-2,.9-2,2s.9,2,2,2h16.34c1.1,0,2-.9,2-2s-.9-2-2-2Z"/>
      <path class="cls-1" d="M1170.94,294.91h-16.34c-1.1,0-2,.9-2,2s.9,2,2,2h16.34c1.1,0,2-.9,2-2s-.9-2-2-2Z"/>
      <path class="cls-1" d="M1196.81,185.38h-16.34c-1.1,0-2,.9-2,2s.9,2,2,2h16.34c1.1,0,2-.9,2-2s-.9-2-2-2Z"/>
      <path class="cls-1" d="M1196.81,193.8h-16.34c-1.1,0-2,.9-2,2s.9,2,2,2h16.34c1.1,0,2-.9,2-2s-.9-2-2-2Z"/>
      <path class="cls-1" d="M1196.81,202.23h-16.34c-1.1,0-2,.9-2,2s.9,2,2,2h16.34c1.1,0,2-.9,2-2s-.9-2-2-2Z"/>
      <path class="cls-1" d="M1196.81,210.65h-16.34c-1.1,0-2,.9-2,2s.9,2,2,2h16.34c1.1,0,2-.9,2-2s-.9-2-2-2Z"/>
      <path class="cls-1" d="M1196.81,219.08h-16.34c-1.1,0-2,.9-2,2s.9,2,2,2h16.34c1.1,0,2-.9,2-2s-.9-2-2-2Z"/>
      <path class="cls-1" d="M1196.81,227.5h-16.34c-1.1,0-2,.9-2,2s.9,2,2,2h16.34c1.1,0,2-.9,2-2s-.9-2-2-2Z"/>
      <path class="cls-1" d="M1196.81,235.93h-16.34c-1.1,0-2,.9-2,2s.9,2,2,2h16.34c1.1,0,2-.9,2-2s-.9-2-2-2Z"/>
      <path class="cls-1" d="M1196.81,244.35h-16.34c-1.1,0-2,.9-2,2s.9,2,2,2h16.34c1.1,0,2-.9,2-2s-.9-2-2-2Z"/>
      <path class="cls-1" d="M1196.81,252.78h-16.34c-1.1,0-2,.9-2,2s.9,2,2,2h16.34c1.1,0,2-.9,2-2s-.9-2-2-2Z"/>
      <path class="cls-1" d="M1196.81,261.21h-16.34c-1.1,0-2,.9-2,2s.9,2,2,2h16.34c1.1,0,2-.9,2-2s-.9-2-2-2Z"/>
      <path class="cls-1" d="M1196.81,269.63h-16.34c-1.1,0-2,.9-2,2s.9,2,2,2h16.34c1.1,0,2-.9,2-2s-.9-2-2-2Z"/>
      <path class="cls-1" d="M1196.81,278.06h-16.34c-1.1,0-2,.9-2,2s.9,2,2,2h16.34c1.1,0,2-.9,2-2s-.9-2-2-2Z"/>
      <path class="cls-1" d="M1196.81,286.48h-16.34c-1.1,0-2,.9-2,2s.9,2,2,2h16.34c1.1,0,2-.9,2-2s-.9-2-2-2Z"/>
      <path class="cls-1" d="M1196.81,294.91h-16.34c-1.1,0-2,.9-2,2s.9,2,2,2h16.34c1.1,0,2-.9,2-2s-.9-2-2-2Z"/>
      <path class="cls-1" d="M1222.68,185.38h-16.34c-1.1,0-2,.9-2,2s.9,2,2,2h16.34c1.1,0,2-.9,2-2s-.9-2-2-2Z"/>
      <path class="cls-1" d="M1222.68,193.8h-16.34c-1.1,0-2,.9-2,2s.9,2,2,2h16.34c1.1,0,2-.9,2-2s-.9-2-2-2Z"/>
      <path class="cls-1" d="M1222.68,202.23h-16.34c-1.1,0-2,.9-2,2s.9,2,2,2h16.34c1.1,0,2-.9,2-2s-.9-2-2-2Z"/>
      <path class="cls-1" d="M1222.68,210.65h-16.34c-1.1,0-2,.9-2,2s.9,2,2,2h16.34c1.1,0,2-.9,2-2s-.9-2-2-2Z"/>
      <path class="cls-1" d="M1222.68,219.08h-16.34c-1.1,0-2,.9-2,2s.9,2,2,2h16.34c1.1,0,2-.9,2-2s-.9-2-2-2Z"/>
      <path class="cls-1" d="M1222.68,227.5h-16.34c-1.1,0-2,.9-2,2s.9,2,2,2h16.34c1.1,0,2-.9,2-2s-.9-2-2-2Z"/>
      <path class="cls-1" d="M1222.68,235.93h-16.34c-1.1,0-2,.9-2,2s.9,2,2,2h16.34c1.1,0,2-.9,2-2s-.9-2-2-2Z"/>
      <path class="cls-1" d="M1222.68,244.35h-16.34c-1.1,0-2,.9-2,2s.9,2,2,2h16.34c1.1,0,2-.9,2-2s-.9-2-2-2Z"/>
      <path class="cls-1" d="M1222.68,252.78h-16.34c-1.1,0-2,.9-2,2s.9,2,2,2h16.34c1.1,0,2-.9,2-2s-.9-2-2-2Z"/>
      <path class="cls-1" d="M1222.68,261.21h-16.34c-1.1,0-2,.9-2,2s.9,2,2,2h16.34c1.1,0,2-.9,2-2s-.9-2-2-2Z"/>
      <path class="cls-1" d="M1222.68,269.63h-16.34c-1.1,0-2,.9-2,2s.9,2,2,2h16.34c1.1,0,2-.9,2-2s-.9-2-2-2Z"/>
      <path class="cls-1" d="M1222.68,278.06h-16.34c-1.1,0-2,.9-2,2s.9,2,2,2h16.34c1.1,0,2-.9,2-2s-.9-2-2-2Z"/>
      <path class="cls-1" d="M1222.68,286.48h-16.34c-1.1,0-2,.9-2,2s.9,2,2,2h16.34c1.1,0,2-.9,2-2s-.9-2-2-2Z"/>
      <path class="cls-1" d="M1222.68,294.91h-16.34c-1.1,0-2,.9-2,2s.9,2,2,2h16.34c1.1,0,2-.9,2-2s-.9-2-2-2Z"/>
      <path class="cls-1" d="M1121.2,359.87c-1.1,0-2,.9-2,2v12.89c0,1.1.9,2,2,2s2-.9,2-2v-12.89c0-1.1-.9-2-2-2Z"/>
      <path class="cls-1" d="M1128.73,359.87c-1.1,0-2,.9-2,2v12.89c0,1.1.9,2,2,2s2-.9,2-2v-12.89c0-1.1-.9-2-2-2Z"/>
      <path class="cls-1" d="M1136.26,359.87c-1.1,0-2,.9-2,2v12.89c0,1.1.9,2,2,2s2-.9,2-2v-12.89c0-1.1-.9-2-2-2Z"/>
      <path class="cls-1" d="M1143.79,359.87c-1.1,0-2,.9-2,2v12.89c0,1.1.9,2,2,2s2-.9,2-2v-12.89c0-1.1-.9-2-2-2Z"/>
      <path class="cls-1" d="M1173.92,359.87c-1.1,0-2,.9-2,2v12.89c0,1.1.9,2,2,2s2-.9,2-2v-12.89c0-1.1-.9-2-2-2Z"/>
      <path class="cls-1" d="M1181.45,359.87c-1.1,0-2,.9-2,2v12.89c0,1.1.9,2,2,2s2-.9,2-2v-12.89c0-1.1-.9-2-2-2Z"/>
      <path class="cls-1" d="M1188.98,359.87c-1.1,0-2,.9-2,2v12.89c0,1.1.9,2,2,2s2-.9,2-2v-12.89c0-1.1-.9-2-2-2Z"/>
      <path class="cls-1" d="M1219.11,359.87c-1.1,0-2,.9-2,2v12.89c0,1.1.9,2,2,2s2-.9,2-2v-12.89c0-1.1-.9-2-2-2Z"/>
      <path class="cls-1" d="M1226.64,359.87c-1.1,0-2,.9-2,2v12.89c0,1.1.9,2,2,2s2-.9,2-2v-12.89c0-1.1-.9-2-2-2Z"/>
      <path class="cls-1" d="M1669.59,185.37h-16.34c-1.1,0-2,.9-2,2s.9,2,2,2h16.34c1.1,0,2-.9,2-2s-.9-2-2-2Z"/>
      <path class="cls-1" d="M1669.59,193.8h-16.34c-1.1,0-2,.9-2,2s.9,2,2,2h16.34c1.1,0,2-.9,2-2s-.9-2-2-2Z"/>
      <path class="cls-1" d="M1669.59,202.22h-16.34c-1.1,0-2,.9-2,2s.9,2,2,2h16.34c1.1,0,2-.9,2-2s-.9-2-2-2Z"/>
      <path class="cls-1" d="M1669.59,210.66h-16.34c-1.1,0-2,.9-2,2s.9,2,2,2h16.34c1.1,0,2-.9,2-2s-.9-2-2-2Z"/>
      <path class="cls-1" d="M1669.59,219.08h-16.34c-1.1,0-2,.9-2,2s.9,2,2,2h16.34c1.1,0,2-.9,2-2s-.9-2-2-2Z"/>
      <path class="cls-1" d="M1669.59,227.51h-16.34c-1.1,0-2,.9-2,2s.9,2,2,2h16.34c1.1,0,2-.9,2-2s-.9-2-2-2Z"/>
      <path class="cls-1" d="M1669.59,235.93h-16.34c-1.1,0-2,.9-2,2s.9,2,2,2h16.34c1.1,0,2-.9,2-2s-.9-2-2-2Z"/>
      <path class="cls-1" d="M1669.59,244.36h-16.34c-1.1,0-2,.9-2,2s.9,2,2,2h16.34c1.1,0,2-.9,2-2s-.9-2-2-2Z"/>
      <path class="cls-1" d="M1669.59,252.78h-16.34c-1.1,0-2,.9-2,2s.9,2,2,2h16.34c1.1,0,2-.9,2-2s-.9-2-2-2Z"/>
      <path class="cls-1" d="M1669.59,261.2h-16.34c-1.1,0-2,.9-2,2s.9,2,2,2h16.34c1.1,0,2-.9,2-2s-.9-2-2-2Z"/>
      <path class="cls-1" d="M1669.59,269.63h-16.34c-1.1,0-2,.9-2,2s.9,2,2,2h16.34c1.1,0,2-.9,2-2s-.9-2-2-2Z"/>
      <path class="cls-1" d="M1669.59,278.05h-16.34c-1.1,0-2,.9-2,2s.9,2,2,2h16.34c1.1,0,2-.9,2-2s-.9-2-2-2Z"/>
      <path class="cls-1" d="M1669.59,286.48h-16.34c-1.1,0-2,.9-2,2s.9,2,2,2h16.34c1.1,0,2-.9,2-2s-.9-2-2-2Z"/>
      <path class="cls-1" d="M1669.59,294.91h-16.34c-1.1,0-2,.9-2,2s.9,2,2,2h16.34c1.1,0,2-.9,2-2s-.9-2-2-2Z"/>
      <path class="cls-1" d="M1669.59,302.91h-16.34c-1.1,0-2,.9-2,2s.9,2,2,2h16.34c1.1,0,2-.9,2-2s-.9-2-2-2Z"/>
      <path class="cls-1" d="M1669.59,311.34h-16.34c-1.1,0-2,.9-2,2s.9,2,2,2h16.34c1.1,0,2-.9,2-2s-.9-2-2-2Z"/>
      <path class="cls-1" d="M1669.59,319.76h-16.34c-1.1,0-2,.9-2,2s.9,2,2,2h16.34c1.1,0,2-.9,2-2s-.9-2-2-2Z"/>
      <path class="cls-1" d="M1669.59,328.19h-16.34c-1.1,0-2,.9-2,2s.9,2,2,2h16.34c1.1,0,2-.9,2-2s-.9-2-2-2Z"/>
      <path class="cls-1" d="M1643.73,302.91h-16.34c-1.1,0-2,.9-2,2s.9,2,2,2h16.34c1.1,0,2-.9,2-2s-.9-2-2-2Z"/>
      <path class="cls-1" d="M1643.73,311.34h-16.34c-1.1,0-2,.9-2,2s.9,2,2,2h16.34c1.1,0,2-.9,2-2s-.9-2-2-2Z"/>
      <path class="cls-1" d="M1643.73,319.76h-16.34c-1.1,0-2,.9-2,2s.9,2,2,2h16.34c1.1,0,2-.9,2-2s-.9-2-2-2Z"/>
      <path class="cls-1" d="M1643.73,328.19h-16.34c-1.1,0-2,.9-2,2s.9,2,2,2h16.34c1.1,0,2-.9,2-2s-.9-2-2-2Z"/>
      <path class="cls-1" d="M1617.85,302.91h-16.34c-1.1,0-2,.9-2,2s.9,2,2,2h16.34c1.1,0,2-.9,2-2s-.9-2-2-2Z"/>
      <path class="cls-1" d="M1617.85,311.34h-16.34c-1.1,0-2,.9-2,2s.9,2,2,2h16.34c1.1,0,2-.9,2-2s-.9-2-2-2Z"/>
      <path class="cls-1" d="M1617.85,319.76h-16.34c-1.1,0-2,.9-2,2s.9,2,2,2h16.34c1.1,0,2-.9,2-2s-.9-2-2-2Z"/>
      <path class="cls-1" d="M1617.85,328.19h-16.34c-1.1,0-2,.9-2,2s.9,2,2,2h16.34c1.1,0,2-.9,2-2s-.9-2-2-2Z"/>
      <path class="cls-1" d="M1591.98,302.91h-16.34c-1.1,0-2,.9-2,2s.9,2,2,2h16.34c1.1,0,2-.9,2-2s-.9-2-2-2Z"/>
      <path class="cls-1" d="M1591.98,311.34h-16.34c-1.1,0-2,.9-2,2s.9,2,2,2h16.34c1.1,0,2-.9,2-2s-.9-2-2-2Z"/>
      <path class="cls-1" d="M1591.98,319.76h-16.34c-1.1,0-2,.9-2,2s.9,2,2,2h16.34c1.1,0,2-.9,2-2s-.9-2-2-2Z"/>
      <path class="cls-1" d="M1591.98,328.19h-16.34c-1.1,0-2,.9-2,2s.9,2,2,2h16.34c1.1,0,2-.9,2-2s-.9-2-2-2Z"/>
      <path class="cls-1" d="M1643.73,185.37h-16.34c-1.1,0-2,.9-2,2s.9,2,2,2h16.34c1.1,0,2-.9,2-2s-.9-2-2-2Z"/>
      <path class="cls-1" d="M1643.73,193.8h-16.34c-1.1,0-2,.9-2,2s.9,2,2,2h16.34c1.1,0,2-.9,2-2s-.9-2-2-2Z"/>
      <path class="cls-1" d="M1643.73,202.22h-16.34c-1.1,0-2,.9-2,2s.9,2,2,2h16.34c1.1,0,2-.9,2-2s-.9-2-2-2Z"/>
      <path class="cls-1" d="M1643.73,210.66h-16.34c-1.1,0-2,.9-2,2s.9,2,2,2h16.34c1.1,0,2-.9,2-2s-.9-2-2-2Z"/>
      <path class="cls-1" d="M1643.73,219.08h-16.34c-1.1,0-2,.9-2,2s.9,2,2,2h16.34c1.1,0,2-.9,2-2s-.9-2-2-2Z"/>
      <path class="cls-1" d="M1643.73,227.51h-16.34c-1.1,0-2,.9-2,2s.9,2,2,2h16.34c1.1,0,2-.9,2-2s-.9-2-2-2Z"/>
      <path class="cls-1" d="M1643.73,235.93h-16.34c-1.1,0-2,.9-2,2s.9,2,2,2h16.34c1.1,0,2-.9,2-2s-.9-2-2-2Z"/>
      <path class="cls-1" d="M1643.73,244.36h-16.34c-1.1,0-2,.9-2,2s.9,2,2,2h16.34c1.1,0,2-.9,2-2s-.9-2-2-2Z"/>
      <path class="cls-1" d="M1643.73,252.78h-16.34c-1.1,0-2,.9-2,2s.9,2,2,2h16.34c1.1,0,2-.9,2-2s-.9-2-2-2Z"/>
      <path class="cls-1" d="M1643.73,261.2h-16.34c-1.1,0-2,.9-2,2s.9,2,2,2h16.34c1.1,0,2-.9,2-2s-.9-2-2-2Z"/>
      <path class="cls-1" d="M1643.73,269.63h-16.34c-1.1,0-2,.9-2,2s.9,2,2,2h16.34c1.1,0,2-.9,2-2s-.9-2-2-2Z"/>
      <path class="cls-1" d="M1643.73,278.05h-16.34c-1.1,0-2,.9-2,2s.9,2,2,2h16.34c1.1,0,2-.9,2-2s-.9-2-2-2Z"/>
      <path class="cls-1" d="M1643.73,286.48h-16.34c-1.1,0-2,.9-2,2s.9,2,2,2h16.34c1.1,0,2-.9,2-2s-.9-2-2-2Z"/>
      <path class="cls-1" d="M1643.73,294.91h-16.34c-1.1,0-2,.9-2,2s.9,2,2,2h16.34c1.1,0,2-.9,2-2s-.9-2-2-2Z"/>
      <path class="cls-1" d="M1617.85,185.37h-16.34c-1.1,0-2,.9-2,2s.9,2,2,2h16.34c1.1,0,2-.9,2-2s-.9-2-2-2Z"/>
      <path class="cls-1" d="M1617.85,193.8h-16.34c-1.1,0-2,.9-2,2s.9,2,2,2h16.34c1.1,0,2-.9,2-2s-.9-2-2-2Z"/>
      <path class="cls-1" d="M1617.85,202.22h-16.34c-1.1,0-2,.9-2,2s.9,2,2,2h16.34c1.1,0,2-.9,2-2s-.9-2-2-2Z"/>
      <path class="cls-1" d="M1617.85,210.66h-16.34c-1.1,0-2,.9-2,2s.9,2,2,2h16.34c1.1,0,2-.9,2-2s-.9-2-2-2Z"/>
      <path class="cls-1" d="M1617.85,219.08h-16.34c-1.1,0-2,.9-2,2s.9,2,2,2h16.34c1.1,0,2-.9,2-2s-.9-2-2-2Z"/>
      <path class="cls-1" d="M1617.85,227.51h-16.34c-1.1,0-2,.9-2,2s.9,2,2,2h16.34c1.1,0,2-.9,2-2s-.9-2-2-2Z"/>
      <path class="cls-1" d="M1617.85,235.93h-16.34c-1.1,0-2,.9-2,2s.9,2,2,2h16.34c1.1,0,2-.9,2-2s-.9-2-2-2Z"/>
      <path class="cls-1" d="M1617.85,244.36h-16.34c-1.1,0-2,.9-2,2s.9,2,2,2h16.34c1.1,0,2-.9,2-2s-.9-2-2-2Z"/>
      <path class="cls-1" d="M1617.85,252.78h-16.34c-1.1,0-2,.9-2,2s.9,2,2,2h16.34c1.1,0,2-.9,2-2s-.9-2-2-2Z"/>
      <path class="cls-1" d="M1617.85,261.2h-16.34c-1.1,0-2,.9-2,2s.9,2,2,2h16.34c1.1,0,2-.9,2-2s-.9-2-2-2Z"/>
      <path class="cls-1" d="M1617.85,269.63h-16.34c-1.1,0-2,.9-2,2s.9,2,2,2h16.34c1.1,0,2-.9,2-2s-.9-2-2-2Z"/>
      <path class="cls-1" d="M1617.85,278.05h-16.34c-1.1,0-2,.9-2,2s.9,2,2,2h16.34c1.1,0,2-.9,2-2s-.9-2-2-2Z"/>
      <path class="cls-1" d="M1617.85,286.48h-16.34c-1.1,0-2,.9-2,2s.9,2,2,2h16.34c1.1,0,2-.9,2-2s-.9-2-2-2Z"/>
      <path class="cls-1" d="M1617.85,294.91h-16.34c-1.1,0-2,.9-2,2s.9,2,2,2h16.34c1.1,0,2-.9,2-2s-.9-2-2-2Z"/>
      <path class="cls-1" d="M1591.98,185.37h-16.34c-1.1,0-2,.9-2,2s.9,2,2,2h16.34c1.1,0,2-.9,2-2s-.9-2-2-2Z"/>
      <path class="cls-1" d="M1591.98,193.8h-16.34c-1.1,0-2,.9-2,2s.9,2,2,2h16.34c1.1,0,2-.9,2-2s-.9-2-2-2Z"/>
      <path class="cls-1" d="M1591.98,202.22h-16.34c-1.1,0-2,.9-2,2s.9,2,2,2h16.34c1.1,0,2-.9,2-2s-.9-2-2-2Z"/>
      <path class="cls-1" d="M1591.98,210.66h-16.34c-1.1,0-2,.9-2,2s.9,2,2,2h16.34c1.1,0,2-.9,2-2s-.9-2-2-2Z"/>
      <path class="cls-1" d="M1591.98,219.08h-16.34c-1.1,0-2,.9-2,2s.9,2,2,2h16.34c1.1,0,2-.9,2-2s-.9-2-2-2Z"/>
      <path class="cls-1" d="M1591.98,227.51h-16.34c-1.1,0-2,.9-2,2s.9,2,2,2h16.34c1.1,0,2-.9,2-2s-.9-2-2-2Z"/>
      <path class="cls-1" d="M1591.98,235.93h-16.34c-1.1,0-2,.9-2,2s.9,2,2,2h16.34c1.1,0,2-.9,2-2s-.9-2-2-2Z"/>
      <path class="cls-1" d="M1591.98,244.36h-16.34c-1.1,0-2,.9-2,2s.9,2,2,2h16.34c1.1,0,2-.9,2-2s-.9-2-2-2Z"/>
      <path class="cls-1" d="M1591.98,252.78h-16.34c-1.1,0-2,.9-2,2s.9,2,2,2h16.34c1.1,0,2-.9,2-2s-.9-2-2-2Z"/>
      <path class="cls-1" d="M1591.98,261.2h-16.34c-1.1,0-2,.9-2,2s.9,2,2,2h16.34c1.1,0,2-.9,2-2s-.9-2-2-2Z"/>
      <path class="cls-1" d="M1591.98,269.63h-16.34c-1.1,0-2,.9-2,2s.9,2,2,2h16.34c1.1,0,2-.9,2-2s-.9-2-2-2Z"/>
      <path class="cls-1" d="M1591.98,278.05h-16.34c-1.1,0-2,.9-2,2s.9,2,2,2h16.34c1.1,0,2-.9,2-2s-.9-2-2-2Z"/>
      <path class="cls-1" d="M1591.98,286.48h-16.34c-1.1,0-2,.9-2,2s.9,2,2,2h16.34c1.1,0,2-.9,2-2s-.9-2-2-2Z"/>
      <path class="cls-1" d="M1591.98,294.91h-16.34c-1.1,0-2,.9-2,2s.9,2,2,2h16.34c1.1,0,2-.9,2-2s-.9-2-2-2Z"/>
      <path class="cls-1" d="M1677.13,359.87c-1.1,0-2,.9-2,2v12.89c0,1.1.9,2,2,2s2-.9,2-2v-12.89c0-1.1-.9-2-2-2Z"/>
      <path class="cls-1" d="M1669.6,359.87c-1.1,0-2,.9-2,2v12.89c0,1.1.9,2,2,2s2-.9,2-2v-12.89c0-1.1-.9-2-2-2Z"/>
      <path class="cls-1" d="M1662.06,359.87c-1.1,0-2,.9-2,2v12.89c0,1.1.9,2,2,2s2-.9,2-2v-12.89c0-1.1-.9-2-2-2Z"/>
      <path class="cls-1" d="M1654.53,359.87c-1.1,0-2,.9-2,2v12.89c0,1.1.9,2,2,2s2-.9,2-2v-12.89c0-1.1-.9-2-2-2Z"/>
      <path class="cls-1" d="M1624.4,359.87c-1.1,0-2,.9-2,2v12.89c0,1.1.9,2,2,2s2-.9,2-2v-12.89c0-1.1-.9-2-2-2Z"/>
      <path class="cls-1" d="M1616.87,359.87c-1.1,0-2,.9-2,2v12.89c0,1.1.9,2,2,2s2-.9,2-2v-12.89c0-1.1-.9-2-2-2Z"/>
      <path class="cls-1" d="M1609.34,359.87c-1.1,0-2,.9-2,2v12.89c0,1.1.9,2,2,2s2-.9,2-2v-12.89c0-1.1-.9-2-2-2Z"/>
      <path class="cls-1" d="M1579.21,359.87c-1.1,0-2,.9-2,2v12.89c0,1.1.9,2,2,2s2-.9,2-2v-12.89c0-1.1-.9-2-2-2Z"/>
      <path class="cls-1" d="M1571.68,359.87c-1.1,0-2,.9-2,2v12.89c0,1.1.9,2,2,2s2-.9,2-2v-12.89c0-1.1-.9-2-2-2Z"/>
      <path class="cls-1" d="M330.94,185.37h-16.34c-1.1,0-2,.9-2,2s.9,2,2,2h16.34c1.1,0,2-.9,2-2s-.9-2-2-2Z"/>
      <path class="cls-1" d="M330.94,193.8h-16.34c-1.1,0-2,.9-2,2s.9,2,2,2h16.34c1.1,0,2-.9,2-2s-.9-2-2-2Z"/>
      <path class="cls-1" d="M330.94,202.22h-16.34c-1.1,0-2,.9-2,2s.9,2,2,2h16.34c1.1,0,2-.9,2-2s-.9-2-2-2Z"/>
      <path class="cls-1" d="M330.94,210.66h-16.34c-1.1,0-2,.9-2,2s.9,2,2,2h16.34c1.1,0,2-.9,2-2s-.9-2-2-2Z"/>
      <path class="cls-1" d="M330.94,219.08h-16.34c-1.1,0-2,.9-2,2s.9,2,2,2h16.34c1.1,0,2-.9,2-2s-.9-2-2-2Z"/>
      <path class="cls-1" d="M330.94,227.51h-16.34c-1.1,0-2,.9-2,2s.9,2,2,2h16.34c1.1,0,2-.9,2-2s-.9-2-2-2Z"/>
      <path class="cls-1" d="M330.94,235.93h-16.34c-1.1,0-2,.9-2,2s.9,2,2,2h16.34c1.1,0,2-.9,2-2s-.9-2-2-2Z"/>
      <path class="cls-1" d="M330.94,244.36h-16.34c-1.1,0-2,.9-2,2s.9,2,2,2h16.34c1.1,0,2-.9,2-2s-.9-2-2-2Z"/>
      <path class="cls-1" d="M330.94,252.78h-16.34c-1.1,0-2,.9-2,2s.9,2,2,2h16.34c1.1,0,2-.9,2-2s-.9-2-2-2Z"/>
      <path class="cls-1" d="M330.94,261.2h-16.34c-1.1,0-2,.9-2,2s.9,2,2,2h16.34c1.1,0,2-.9,2-2s-.9-2-2-2Z"/>
      <path class="cls-1" d="M330.94,269.63h-16.34c-1.1,0-2,.9-2,2s.9,2,2,2h16.34c1.1,0,2-.9,2-2s-.9-2-2-2Z"/>
      <path class="cls-1" d="M330.94,278.05h-16.34c-1.1,0-2,.9-2,2s.9,2,2,2h16.34c1.1,0,2-.9,2-2s-.9-2-2-2Z"/>
      <path class="cls-1" d="M330.94,286.48h-16.34c-1.1,0-2,.9-2,2s.9,2,2,2h16.34c1.1,0,2-.9,2-2s-.9-2-2-2Z"/>
      <path class="cls-1" d="M330.94,294.91h-16.34c-1.1,0-2,.9-2,2s.9,2,2,2h16.34c1.1,0,2-.9,2-2s-.9-2-2-2Z"/>
      <path class="cls-1" d="M330.94,302.91h-16.34c-1.1,0-2,.9-2,2s.9,2,2,2h16.34c1.1,0,2-.9,2-2s-.9-2-2-2Z"/>
      <path class="cls-1" d="M330.94,311.34h-16.34c-1.1,0-2,.9-2,2s.9,2,2,2h16.34c1.1,0,2-.9,2-2s-.9-2-2-2Z"/>
      <path class="cls-1" d="M330.94,319.76h-16.34c-1.1,0-2,.9-2,2s.9,2,2,2h16.34c1.1,0,2-.9,2-2s-.9-2-2-2Z"/>
      <path class="cls-1" d="M330.94,328.19h-16.34c-1.1,0-2,.9-2,2s.9,2,2,2h16.34c1.1,0,2-.9,2-2s-.9-2-2-2Z"/>
      <path class="cls-1" d="M305.07,302.91h-16.34c-1.1,0-2,.9-2,2s.9,2,2,2h16.34c1.1,0,2-.9,2-2s-.9-2-2-2Z"/>
      <path class="cls-1" d="M305.07,311.34h-16.34c-1.1,0-2,.9-2,2s.9,2,2,2h16.34c1.1,0,2-.9,2-2s-.9-2-2-2Z"/>
      <path class="cls-1" d="M305.07,319.76h-16.34c-1.1,0-2,.9-2,2s.9,2,2,2h16.34c1.1,0,2-.9,2-2s-.9-2-2-2Z"/>
      <path class="cls-1" d="M305.07,328.19h-16.34c-1.1,0-2,.9-2,2s.9,2,2,2h16.34c1.1,0,2-.9,2-2s-.9-2-2-2Z"/>
      <path class="cls-1" d="M279.19,302.91h-16.34c-1.1,0-2,.9-2,2s.9,2,2,2h16.34c1.1,0,2-.9,2-2s-.9-2-2-2Z"/>
      <path class="cls-1" d="M279.19,311.34h-16.34c-1.1,0-2,.9-2,2s.9,2,2,2h16.34c1.1,0,2-.9,2-2s-.9-2-2-2Z"/>
      <path class="cls-1" d="M279.19,319.76h-16.34c-1.1,0-2,.9-2,2s.9,2,2,2h16.34c1.1,0,2-.9,2-2s-.9-2-2-2Z"/>
      <path class="cls-1" d="M279.19,328.19h-16.34c-1.1,0-2,.9-2,2s.9,2,2,2h16.34c1.1,0,2-.9,2-2s-.9-2-2-2Z"/>
      <path class="cls-1" d="M253.33,302.91h-16.34c-1.1,0-2,.9-2,2s.9,2,2,2h16.34c1.1,0,2-.9,2-2s-.9-2-2-2Z"/>
      <path class="cls-1" d="M253.33,311.34h-16.34c-1.1,0-2,.9-2,2s.9,2,2,2h16.34c1.1,0,2-.9,2-2s-.9-2-2-2Z"/>
      <path class="cls-1" d="M253.33,319.76h-16.34c-1.1,0-2,.9-2,2s.9,2,2,2h16.34c1.1,0,2-.9,2-2s-.9-2-2-2Z"/>
      <path class="cls-1" d="M253.33,328.19h-16.34c-1.1,0-2,.9-2,2s.9,2,2,2h16.34c1.1,0,2-.9,2-2s-.9-2-2-2Z"/>
      <path class="cls-1" d="M305.07,185.37h-16.34c-1.1,0-2,.9-2,2s.9,2,2,2h16.34c1.1,0,2-.9,2-2s-.9-2-2-2Z"/>
      <path class="cls-1" d="M305.07,193.8h-16.34c-1.1,0-2,.9-2,2s.9,2,2,2h16.34c1.1,0,2-.9,2-2s-.9-2-2-2Z"/>
      <path class="cls-1" d="M305.07,202.22h-16.34c-1.1,0-2,.9-2,2s.9,2,2,2h16.34c1.1,0,2-.9,2-2s-.9-2-2-2Z"/>
      <path class="cls-1" d="M305.07,210.66h-16.34c-1.1,0-2,.9-2,2s.9,2,2,2h16.34c1.1,0,2-.9,2-2s-.9-2-2-2Z"/>
      <path class="cls-1" d="M305.07,219.08h-16.34c-1.1,0-2,.9-2,2s.9,2,2,2h16.34c1.1,0,2-.9,2-2s-.9-2-2-2Z"/>
      <path class="cls-1" d="M305.07,227.51h-16.34c-1.1,0-2,.9-2,2s.9,2,2,2h16.34c1.1,0,2-.9,2-2s-.9-2-2-2Z"/>
      <path class="cls-1" d="M305.07,235.93h-16.34c-1.1,0-2,.9-2,2s.9,2,2,2h16.34c1.1,0,2-.9,2-2s-.9-2-2-2Z"/>
      <path class="cls-1" d="M305.07,244.36h-16.34c-1.1,0-2,.9-2,2s.9,2,2,2h16.34c1.1,0,2-.9,2-2s-.9-2-2-2Z"/>
      <path class="cls-1" d="M305.07,252.78h-16.34c-1.1,0-2,.9-2,2s.9,2,2,2h16.34c1.1,0,2-.9,2-2s-.9-2-2-2Z"/>
      <path class="cls-1" d="M305.07,261.2h-16.34c-1.1,0-2,.9-2,2s.9,2,2,2h16.34c1.1,0,2-.9,2-2s-.9-2-2-2Z"/>
      <path class="cls-1" d="M305.07,269.63h-16.34c-1.1,0-2,.9-2,2s.9,2,2,2h16.34c1.1,0,2-.9,2-2s-.9-2-2-2Z"/>
      <path class="cls-1" d="M305.07,278.05h-16.34c-1.1,0-2,.9-2,2s.9,2,2,2h16.34c1.1,0,2-.9,2-2s-.9-2-2-2Z"/>
      <path class="cls-1" d="M305.07,286.48h-16.34c-1.1,0-2,.9-2,2s.9,2,2,2h16.34c1.1,0,2-.9,2-2s-.9-2-2-2Z"/>
      <path class="cls-1" d="M305.07,294.91h-16.34c-1.1,0-2,.9-2,2s.9,2,2,2h16.34c1.1,0,2-.9,2-2s-.9-2-2-2Z"/>
      <path class="cls-1" d="M279.19,185.37h-16.34c-1.1,0-2,.9-2,2s.9,2,2,2h16.34c1.1,0,2-.9,2-2s-.9-2-2-2Z"/>
      <path class="cls-1" d="M279.19,193.8h-16.34c-1.1,0-2,.9-2,2s.9,2,2,2h16.34c1.1,0,2-.9,2-2s-.9-2-2-2Z"/>
      <path class="cls-1" d="M279.19,202.22h-16.34c-1.1,0-2,.9-2,2s.9,2,2,2h16.34c1.1,0,2-.9,2-2s-.9-2-2-2Z"/>
      <path class="cls-1" d="M279.19,210.66h-16.34c-1.1,0-2,.9-2,2s.9,2,2,2h16.34c1.1,0,2-.9,2-2s-.9-2-2-2Z"/>
      <path class="cls-1" d="M279.19,219.08h-16.34c-1.1,0-2,.9-2,2s.9,2,2,2h16.34c1.1,0,2-.9,2-2s-.9-2-2-2Z"/>
      <path class="cls-1" d="M279.19,227.51h-16.34c-1.1,0-2,.9-2,2s.9,2,2,2h16.34c1.1,0,2-.9,2-2s-.9-2-2-2Z"/>
      <path class="cls-1" d="M279.19,235.93h-16.34c-1.1,0-2,.9-2,2s.9,2,2,2h16.34c1.1,0,2-.9,2-2s-.9-2-2-2Z"/>
      <path class="cls-1" d="M279.19,244.36h-16.34c-1.1,0-2,.9-2,2s.9,2,2,2h16.34c1.1,0,2-.9,2-2s-.9-2-2-2Z"/>
      <path class="cls-1" d="M279.19,252.78h-16.34c-1.1,0-2,.9-2,2s.9,2,2,2h16.34c1.1,0,2-.9,2-2s-.9-2-2-2Z"/>
      <path class="cls-1" d="M279.19,261.2h-16.34c-1.1,0-2,.9-2,2s.9,2,2,2h16.34c1.1,0,2-.9,2-2s-.9-2-2-2Z"/>
      <path class="cls-1" d="M279.19,269.63h-16.34c-1.1,0-2,.9-2,2s.9,2,2,2h16.34c1.1,0,2-.9,2-2s-.9-2-2-2Z"/>
      <path class="cls-1" d="M279.19,278.05h-16.34c-1.1,0-2,.9-2,2s.9,2,2,2h16.34c1.1,0,2-.9,2-2s-.9-2-2-2Z"/>
      <path class="cls-1" d="M279.19,286.48h-16.34c-1.1,0-2,.9-2,2s.9,2,2,2h16.34c1.1,0,2-.9,2-2s-.9-2-2-2Z"/>
      <path class="cls-1" d="M279.19,294.91h-16.34c-1.1,0-2,.9-2,2s.9,2,2,2h16.34c1.1,0,2-.9,2-2s-.9-2-2-2Z"/>
      <path class="cls-1" d="M253.33,185.37h-16.34c-1.1,0-2,.9-2,2s.9,2,2,2h16.34c1.1,0,2-.9,2-2s-.9-2-2-2Z"/>
      <path class="cls-1" d="M253.33,193.8h-16.34c-1.1,0-2,.9-2,2s.9,2,2,2h16.34c1.1,0,2-.9,2-2s-.9-2-2-2Z"/>
      <path class="cls-1" d="M253.33,202.22h-16.34c-1.1,0-2,.9-2,2s.9,2,2,2h16.34c1.1,0,2-.9,2-2s-.9-2-2-2Z"/>
      <path class="cls-1" d="M253.33,210.66h-16.34c-1.1,0-2,.9-2,2s.9,2,2,2h16.34c1.1,0,2-.9,2-2s-.9-2-2-2Z"/>
      <path class="cls-1" d="M253.33,219.08h-16.34c-1.1,0-2,.9-2,2s.9,2,2,2h16.34c1.1,0,2-.9,2-2s-.9-2-2-2Z"/>
      <path class="cls-1" d="M253.33,227.51h-16.34c-1.1,0-2,.9-2,2s.9,2,2,2h16.34c1.1,0,2-.9,2-2s-.9-2-2-2Z"/>
      <path class="cls-1" d="M253.33,235.93h-16.34c-1.1,0-2,.9-2,2s.9,2,2,2h16.34c1.1,0,2-.9,2-2s-.9-2-2-2Z"/>
      <path class="cls-1" d="M253.33,244.36h-16.34c-1.1,0-2,.9-2,2s.9,2,2,2h16.34c1.1,0,2-.9,2-2s-.9-2-2-2Z"/>
      <path class="cls-1" d="M253.33,252.78h-16.34c-1.1,0-2,.9-2,2s.9,2,2,2h16.34c1.1,0,2-.9,2-2s-.9-2-2-2Z"/>
      <path class="cls-1" d="M253.33,261.2h-16.34c-1.1,0-2,.9-2,2s.9,2,2,2h16.34c1.1,0,2-.9,2-2s-.9-2-2-2Z"/>
      <path class="cls-1" d="M253.33,269.63h-16.34c-1.1,0-2,.9-2,2s.9,2,2,2h16.34c1.1,0,2-.9,2-2s-.9-2-2-2Z"/>
      <path class="cls-1" d="M253.33,278.05h-16.34c-1.1,0-2,.9-2,2s.9,2,2,2h16.34c1.1,0,2-.9,2-2s-.9-2-2-2Z"/>
      <path class="cls-1" d="M253.33,286.48h-16.34c-1.1,0-2,.9-2,2s.9,2,2,2h16.34c1.1,0,2-.9,2-2s-.9-2-2-2Z"/>
      <path class="cls-1" d="M253.33,294.91h-16.34c-1.1,0-2,.9-2,2s.9,2,2,2h16.34c1.1,0,2-.9,2-2s-.9-2-2-2Z"/>
      <path class="cls-1" d="M338.47,359.87c-1.1,0-2,.9-2,2v12.89c0,1.1.9,2,2,2s2-.9,2-2v-12.89c0-1.1-.9-2-2-2Z"/>
      <path class="cls-1" d="M330.94,359.87c-1.1,0-2,.9-2,2v12.89c0,1.1.9,2,2,2s2-.9,2-2v-12.89c0-1.1-.9-2-2-2Z"/>
      <path class="cls-1" d="M323.41,359.87c-1.1,0-2,.9-2,2v12.89c0,1.1.9,2,2,2s2-.9,2-2v-12.89c0-1.1-.9-2-2-2Z"/>
      <path class="cls-1" d="M315.88,359.87c-1.1,0-2,.9-2,2v12.89c0,1.1.9,2,2,2s2-.9,2-2v-12.89c0-1.1-.9-2-2-2Z"/>
      <path class="cls-1" d="M285.75,359.87c-1.1,0-2,.9-2,2v12.89c0,1.1.9,2,2,2s2-.9,2-2v-12.89c0-1.1-.9-2-2-2Z"/>
      <path class="cls-1" d="M278.22,359.87c-1.1,0-2,.9-2,2v12.89c0,1.1.9,2,2,2s2-.9,2-2v-12.89c0-1.1-.9-2-2-2Z"/>
      <path class="cls-1" d="M270.69,359.87c-1.1,0-2,.9-2,2v12.89c0,1.1.9,2,2,2s2-.9,2-2v-12.89c0-1.1-.9-2-2-2Z"/>
      <path class="cls-1" d="M240.56,359.87c-1.1,0-2,.9-2,2v12.89c0,1.1.9,2,2,2s2-.9,2-2v-12.89c0-1.1-.9-2-2-2Z"/>
      <path class="cls-1" d="M233.03,359.87c-1.1,0-2,.9-2,2v12.89c0,1.1.9,2,2,2s2-.9,2-2v-12.89c0-1.1-.9-2-2-2Z"/>
      <path class="cls-1" d="M923.77,207.24h28.11c1.1,0,2-.9,2-2s-.9-2-2-2h-28.11c-1.1,0-2,.9-2,2s.9,2,2,2Z"/>
      <path class="cls-1" d="M951.88,214.91h-28.11c-1.1,0-2,.9-2,2s.9,2,2,2h28.11c1.1,0,2-.9,2-2s-.9-2-2-2Z"/>
      <path class="cls-1" d="M951.88,226.57h-28.11c-1.1,0-2,.9-2,2s.9,2,2,2h28.11c1.1,0,2-.9,2-2s-.9-2-2-2Z"/>
      <path class="cls-1" d="M951.88,238.23h-28.11c-1.1,0-2,.9-2,2s.9,2,2,2h28.11c1.1,0,2-.9,2-2s-.9-2-2-2Z"/>
      <path class="cls-1" d="M951.88,249.9h-28.11c-1.1,0-2,.9-2,2s.9,2,2,2h28.11c1.1,0,2-.9,2-2s-.9-2-2-2Z"/>
      <path class="cls-1" d="M951.88,261.56h-28.11c-1.1,0-2,.9-2,2s.9,2,2,2h28.11c1.1,0,2-.9,2-2s-.9-2-2-2Z"/>
      <path class="cls-1" d="M951.88,273.22h-28.11c-1.1,0-2,.9-2,2s.9,2,2,2h28.11c1.1,0,2-.9,2-2s-.9-2-2-2Z"/>
      <path class="cls-1" d="M951.88,284.89h-28.11c-1.1,0-2,.9-2,2s.9,2,2,2h28.11c1.1,0,2-.9,2-2s-.9-2-2-2Z"/>
      <path class="cls-1" d="M951.88,296.55h-28.11c-1.1,0-2,.9-2,2s.9,2,2,2h28.11c1.1,0,2-.9,2-2s-.9-2-2-2Z"/>
      <path class="cls-1" d="M951.88,308.21h-28.11c-1.1,0-2,.9-2,2s.9,2,2,2h28.11c1.1,0,2-.9,2-2s-.9-2-2-2Z"/>
      <path class="cls-1" d="M951.88,319.88h-28.11c-1.1,0-2,.9-2,2s.9,2,2,2h28.11c1.1,0,2-.9,2-2s-.9-2-2-2Z"/>
      <path class="cls-1" d="M951.88,331.54h-28.11c-1.1,0-2,.9-2,2s.9,2,2,2h28.11c1.1,0,2-.9,2-2s-.9-2-2-2Z"/>
      <path class="cls-1" d="M951.88,343.21h-28.11c-1.1,0-2,.9-2,2s.9,2,2,2h28.11c1.1,0,2-.9,2-2s-.9-2-2-2Z"/>
      <path class="cls-1" d="M951.88,354.87h-28.11c-1.1,0-2,.9-2,2s.9,2,2,2h28.11c1.1,0,2-.9,2-2s-.9-2-2-2Z"/>
      <path class="cls-1" d="M951.88,366.53h-28.11c-1.1,0-2,.9-2,2s.9,2,2,2h28.11c1.1,0,2-.9,2-2s-.9-2-2-2Z"/>
      <path class="cls-1" d="M1037.98,142.91h28.11c1.1,0,2-.9,2-2s-.9-2-2-2h-28.11c-1.1,0-2,.9-2,2s.9,2,2,2Z"/>
      <path class="cls-1" d="M1037.98,154.57h28.11c1.1,0,2-.9,2-2s-.9-2-2-2h-28.11c-1.1,0-2,.9-2,2s.9,2,2,2Z"/>
      <path class="cls-1" d="M1037.98,166.24h28.11c1.1,0,2-.9,2-2s-.9-2-2-2h-28.11c-1.1,0-2,.9-2,2s.9,2,2,2Z"/>
      <path class="cls-1" d="M1037.98,177.9h28.11c1.1,0,2-.9,2-2s-.9-2-2-2h-28.11c-1.1,0-2,.9-2,2s.9,2,2,2Z"/>
      <path class="cls-1" d="M1037.98,189.56h28.11c1.1,0,2-.9,2-2s-.9-2-2-2h-28.11c-1.1,0-2,.9-2,2s.9,2,2,2Z"/>
      <path class="cls-1" d="M1037.98,201.23h28.11c1.1,0,2-.9,2-2s-.9-2-2-2h-28.11c-1.1,0-2,.9-2,2s.9,2,2,2Z"/>
      <path class="cls-1" d="M1037.98,212.89h28.11c1.1,0,2-.9,2-2s-.9-2-2-2h-28.11c-1.1,0-2,.9-2,2s.9,2,2,2Z"/>
      <path class="cls-1" d="M1037.98,224.55h28.11c1.1,0,2-.9,2-2s-.9-2-2-2h-28.11c-1.1,0-2,.9-2,2s.9,2,2,2Z"/>
      <path class="cls-1" d="M1037.98,236.22h28.11c1.1,0,2-.9,2-2s-.9-2-2-2h-28.11c-1.1,0-2,.9-2,2s.9,2,2,2Z"/>
      <path class="cls-1" d="M1037.98,247.88h28.11c1.1,0,2-.9,2-2s-.9-2-2-2h-28.11c-1.1,0-2,.9-2,2s.9,2,2,2Z"/>
      <path class="cls-1" d="M1037.98,259.54h28.11c1.1,0,2-.9,2-2s-.9-2-2-2h-28.11c-1.1,0-2,.9-2,2s.9,2,2,2Z"/>
      <path class="cls-1" d="M1037.98,271.21h28.11c1.1,0,2-.9,2-2s-.9-2-2-2h-28.11c-1.1,0-2,.9-2,2s.9,2,2,2Z"/>
      <path class="cls-1" d="M1037.98,282.87h28.11c1.1,0,2-.9,2-2s-.9-2-2-2h-28.11c-1.1,0-2,.9-2,2s.9,2,2,2Z"/>
      <path class="cls-1" d="M1037.98,294.53h28.11c1.1,0,2-.9,2-2s-.9-2-2-2h-28.11c-1.1,0-2,.9-2,2s.9,2,2,2Z"/>
      <path class="cls-1" d="M1037.98,306.2h28.11c1.1,0,2-.9,2-2s-.9-2-2-2h-28.11c-1.1,0-2,.9-2,2s.9,2,2,2Z"/>
      <path class="cls-1" d="M1037.98,317.86h28.11c1.1,0,2-.9,2-2s-.9-2-2-2h-28.11c-1.1,0-2,.9-2,2s.9,2,2,2Z"/>
      <path class="cls-1" d="M1037.98,329.52h28.11c1.1,0,2-.9,2-2s-.9-2-2-2h-28.11c-1.1,0-2,.9-2,2s.9,2,2,2Z"/>
      <path class="cls-1" d="M1037.98,341.19h28.11c1.1,0,2-.9,2-2s-.9-2-2-2h-28.11c-1.1,0-2,.9-2,2s.9,2,2,2Z"/>
      <path class="cls-1" d="M1037.98,352.85h28.11c1.1,0,2-.9,2-2s-.9-2-2-2h-28.11c-1.1,0-2,.9-2,2s.9,2,2,2Z"/>
      <path class="cls-1" d="M1037.98,364.52h28.11c1.1,0,2-.9,2-2s-.9-2-2-2h-28.11c-1.1,0-2,.9-2,2s.9,2,2,2Z"/>
      <path class="cls-1" d="M980.87,171.71h28.12c1.1,0,2-.9,2-2s-.9-2-2-2h-28.12c-1.1,0-2,.9-2,2s.9,2,2,2Z"/>
      <path class="cls-1" d="M980.87,183.37h28.12c1.1,0,2-.9,2-2s-.9-2-2-2h-28.12c-1.1,0-2,.9-2,2s.9,2,2,2Z"/>
      <path class="cls-1" d="M980.87,195.04h28.12c1.1,0,2-.9,2-2s-.9-2-2-2h-28.12c-1.1,0-2,.9-2,2s.9,2,2,2Z"/>
      <path class="cls-1" d="M980.87,206.7h28.12c1.1,0,2-.9,2-2s-.9-2-2-2h-28.12c-1.1,0-2,.9-2,2s.9,2,2,2Z"/>
      <path class="cls-1" d="M980.87,218.36h28.12c1.1,0,2-.9,2-2s-.9-2-2-2h-28.12c-1.1,0-2,.9-2,2s.9,2,2,2Z"/>
      <path class="cls-1" d="M980.87,230.03h28.12c1.1,0,2-.9,2-2s-.9-2-2-2h-28.12c-1.1,0-2,.9-2,2s.9,2,2,2Z"/>
      <path class="cls-1" d="M980.87,241.69h28.12c1.1,0,2-.9,2-2s-.9-2-2-2h-28.12c-1.1,0-2,.9-2,2s.9,2,2,2Z"/>
      <path class="cls-1" d="M980.87,253.35h28.12c1.1,0,2-.9,2-2s-.9-2-2-2h-28.12c-1.1,0-2,.9-2,2s.9,2,2,2Z"/>
      <path class="cls-1" d="M980.87,265.02h28.12c1.1,0,2-.9,2-2s-.9-2-2-2h-28.12c-1.1,0-2,.9-2,2s.9,2,2,2Z"/>
      <path class="cls-1" d="M980.87,276.68h28.12c1.1,0,2-.9,2-2s-.9-2-2-2h-28.12c-1.1,0-2,.9-2,2s.9,2,2,2Z"/>
      <path class="cls-1" d="M980.87,288.35h28.12c1.1,0,2-.9,2-2s-.9-2-2-2h-28.12c-1.1,0-2,.9-2,2s.9,2,2,2Z"/>
      <path class="cls-1" d="M980.87,300.01h28.12c1.1,0,2-.9,2-2s-.9-2-2-2h-28.12c-1.1,0-2,.9-2,2s.9,2,2,2Z"/>
      <path class="cls-1" d="M980.87,311.67h28.12c1.1,0,2-.9,2-2s-.9-2-2-2h-28.12c-1.1,0-2,.9-2,2s.9,2,2,2Z"/>
      <path class="cls-1" d="M980.87,323.34h28.12c1.1,0,2-.9,2-2s-.9-2-2-2h-28.12c-1.1,0-2,.9-2,2s.9,2,2,2Z"/>
      <path class="cls-1" d="M980.87,335h28.12c1.1,0,2-.9,2-2s-.9-2-2-2h-28.12c-1.1,0-2,.9-2,2s.9,2,2,2Z"/>
      <path class="cls-1" d="M980.87,346.66h28.12c1.1,0,2-.9,2-2s-.9-2-2-2h-28.12c-1.1,0-2,.9-2,2s.9,2,2,2Z"/>
      <path class="cls-1" d="M980.87,358.33h28.12c1.1,0,2-.9,2-2s-.9-2-2-2h-28.12c-1.1,0-2,.9-2,2s.9,2,2,2Z"/>
      <path class="cls-1" d="M980.87,370.24h28.12c1.1,0,2-.9,2-2s-.9-2-2-2h-28.12c-1.1,0-2,.9-2,2s.9,2,2,2Z"/>
      <path class="cls-1" d="M1783.11,377.97h-8.21v-138.93c0-1.1-.9-2-2-2h-74.99c-1.1,0-2,.9-2,2v138.93h-9.34v-21.32c0-1.1-.9-2-2-2h-4.81v-178.91c0-1.1-.9-2-2-2h-16.89v-8.75c0-1.1-.9-2-2-2h-25.02c-1.1,0-2,.9-2,2v3.38h-20.17v-7.46c0-1.1-.9-2-2-2h-25.87c-1.1,0-2,.9-2,2v12.83h-14.35c-1.1,0-2,.9-2,2v178.91h-4.98c-1.1,0-2,.9-2,2v21.32h-15.45v-46.89c0-1.1-.9-2-2-2s-2,.9-2,2v46.89h-56v-46.89c0-1.1-.9-2-2-2s-2,.9-2,2v46.89h-14.3v-138.93c0-1.1-.9-2-2-2h-74.99c-1.1,0-2,.9-2,2v138.93h-29.16c-.76-7.67-3.8-14.02-9.04-18.92,6.72-107.3,1.7-174.37-3.7-211.74-5.88-40.74-13.32-55.81-13.63-56.43l-.2-.4-22.35-17.41-1.24-1.04-23.49,18.3-.2.4c-.31.62-7.75,15.7-13.63,56.44-5.4,37.39-10.42,104.5-3.69,211.88-5.25,4.89-8.29,11.25-9.05,18.93h-16.52v-21.32c0-1.1-.9-2-2-2h-4.98v-178.91c0-1.1-.9-2-2-2h-14.34v-12.83c0-1.1-.9-2-2-2h-25.88c-1.1,0-2,.9-2,2v7.46h-20.17v-3.38c0-1.1-.9-2-2-2h-25.02c-1.1,0-2,.9-2,2v8.75h-16.89c-1.1,0-2,.9-2,2v178.91h-4.81c-1.1,0-2,.9-2,2v21.32h-22.39v-187.05c0-1.1-.9-2-2-2h-2.71v-48.46c0-1.1-.9-2-2-2h-4.73v-21.55c0-1.1-.9-2-2-2h-8.69v-19.84c0-.8-.47-1.52-1.2-1.83-.73-.32-1.58-.17-2.16.38l-17.67,16.54c-.11-.34-.3-.65-.59-.89l-7.18-6.13c-.59-.51-1.43-.62-2.14-.29-.71.33-1.16,1.04-1.16,1.82v10.26h-6.98c-1.1,0-2,.9-2,2v21.55h-4.72c-1.1,0-2,.9-2,2v7.34s-.01,0-.02,0h-8.69v-19.83c0-.8-.47-1.52-1.2-1.83-.73-.32-1.58-.17-2.16.38l-17.68,16.54c-.11-.34-.31-.65-.6-.9l-7.18-6.13c-.59-.51-1.43-.62-2.14-.3-.71.33-1.16,1.04-1.16,1.82v10.26h-6.97c-1.1,0-2,.9-2,2v21.55h-4.73c-1.1,0-2,.9-2,2v6.15c-.1-.02-.21-.03-.32-.03h-8.69v-19.83c0-.8-.47-1.52-1.2-1.83-.73-.32-1.58-.17-2.16.38l-17.67,16.54c-.11-.34-.31-.65-.6-.9l-7.18-6.13c-.59-.51-1.43-.62-2.14-.29-.71.33-1.16,1.04-1.16,1.82v10.26h-6.97c-1.1,0-2,.9-2,2v21.55h-4.73c-1.1,0-2,.9-2,2v48.47h-2.71c-1.1,0-2,.9-2,2v122.48h-41.37l-.11-350.32c0-.71-.38-1.37-1-1.73L814.47.27c-.62-.36-1.38-.36-2,0-.62.36-1,1.02-1,1.73v91.7h-3.18V2c0-.71-.38-1.38-1-1.73-.62-.36-1.38-.36-2,0l-44.41,25.65c-.62.36-1,1.02-1,1.73l.04,133.08h-27.15l-.04-132.56c0-.71-.38-1.37-1-1.73L687.32.79c-.62-.36-1.38-.36-2,0-.62.36-1,1.02-1,1.73v91.71h-3.18V2.52c0-.71-.38-1.38-1-1.73-.62-.36-1.38-.36-2,0l-44.41,25.65c-.62.36-1,1.02-1,1.73l.11,349.8h-28.86v-176.55c0-1.1-.9-2-2-2h-95c-1.1,0-2,.9-2,2v176.55h-19.19v-8.47c0-1.1-.9-2-2-2h-43.96V88.14h5.75c.16,11.55,1.09,71.8,4.06,132.57,6.69,137.07,16.99,143.25,20.37,145.28.32.19.68.29,1.03.29.68,0,1.34-.35,1.72-.97.57-.95.26-2.18-.69-2.74-3.56-2.14-12.49-20.26-18.44-142.04-3.28-67.19-4.07-133.74-4.08-134.4-.01-1.09-.9-1.98-2-1.98h-7.72v-15.02c0-1.1-.9-2-2-2h-16.85c-1.1,0-2,.9-2,2v15.02h-7.7c-1.1,0-1.99.88-2,1.98,0,.67-.8,67.22-4.08,134.4-5.94,121.78-14.87,139.9-18.44,142.04-.95.57-1.25,1.8-.69,2.74.38.62,1.04.97,1.72.97.35,0,.71-.09,1.03-.29,3.38-2.03,13.69-8.21,20.38-145.28,2.97-60.77,3.9-121.01,4.06-132.57h5.73v279.36h-43.96c-1.1,0-2,.9-2,2v8.47h-25.1v-21.32c0-1.1-.9-2-2-2h-4.81v-178.91c0-1.1-.9-2-2-2h-16.89v-8.75c0-1.1-.9-2-2-2h-25.02c-1.1,0-2,.9-2,2v3.38h-20.17v-7.46c0-1.1-.9-2-2-2h-25.88c-1.1,0-2,.9-2,2v12.83h-14.34c-1.1,0-2,.9-2,2v178.91h-4.98c-1.1,0-2,.9-2,2v21.32h-9.87v-138.93c0-1.1-.9-2-2-2h-74.99c-1.1,0-2,.9-2,2v138.93h-19.08v-176.55c0-1.1-.9-2-2-2H14.89c-1.1,0-2,.9-2,2v176.55H2c-1.1,0-2,.9-2,2s.9,2,2,2h130.87s.06,0,.1,0h74.99s.06,0,.1,0h1179.59s.06,0,.1,0h74.99s.06,0,.1,0h234.99s.06,0,.1,0h74.99s.06,0,.1,0h10.11c1.1,0,2-.9,2-2s-.9-2-2-2ZM422.98,71.12h12.85v295.74h-12.85V71.12ZM1699.91,241.04h70.99v136.93h-21.29v-7.19c0-1.1-.9-2-2-2h-23.74c-1.1,0-2,.9-2,2v7.19h-21.96v-136.93ZM1745.61,377.97h-19.74v-5.19h19.74v5.19ZM1585.81,162.91h21.87v7.46c0,1.1.9,2,2,2h24.17c1.1,0,2-.9,2-2v-3.38h21.02v6.75h-71.06v-10.83ZM1569.46,177.74h106.3v176.91h-106.3v-176.91ZM1389.74,241.04h70.99v136.93h-21.28v-7.19c0-1.1-.9-2-2-2h-23.74c-1.1,0-2,.9-2,2v7.19h-21.97v-136.93ZM1435.45,377.97h-19.74v-5.19h19.74v5.19ZM1272.99,148.21c5.28-36.81,11.96-52.72,13.13-55.3l20.25-15.78,20.44,15.93c1.18,2.59,7.86,18.49,13.13,55.3,5.28,36.83,10.19,102.65,3.77,207.65-4.33-2.95-9.26-4.86-14.1-6.09-.06-8.56-.17-16.73-.32-24.57,0-.04.01-.08.01-.11,0-.06-.01-.11-.02-.17-.18-9.2-.43-17.92-.74-26.16.01-.09.03-.17.03-.26,0-.15-.02-.3-.05-.44-4.34-115.54-19.7-138.76-20.43-139.8l-1.63-2.32-1.63,2.32c-.84,1.19-20.48,30.87-21.52,191.52-4.83,1.23-9.76,3.14-14.08,6.08-6.43-105.07-1.52-170.94,3.76-207.78ZM1298.35,194.27h16.24c1.2,6.36,2.42,13.84,3.58,22.59h-23.41c1.16-8.75,2.38-16.23,3.58-22.59ZM1299.14,190.27c2.91-14.31,5.66-22.26,7.33-26.22,1.67,3.97,4.43,11.91,7.34,26.22h-14.67ZM1294.25,220.85s.04,0,.06,0h24.33s.03,0,.05,0c.85,6.79,1.67,14.3,2.43,22.61h-29.29c.76-8.3,1.57-15.81,2.43-22.61ZM1288.33,300.64h36.28c.26,7.17.48,14.7.65,22.59h-37.58c.17-7.89.39-15.42.65-22.59ZM1289.58,274.05h33.79c.41,7.1.78,14.62,1.09,22.59h-35.98c.31-7.97.68-15.49,1.09-22.59ZM1289.82,270.05c.5-8.08,1.06-15.61,1.66-22.59h30c.6,6.98,1.16,14.51,1.66,22.59h-33.31ZM1287.6,327.23h37.74c.13,6.98.23,14.25.28,21.8-9.44-1.76-17.71-1.18-19.15-1.06-1.44-.12-9.71-.69-19.15,1.06.05-7.56.15-14.82.28-21.8ZM1268.85,361.32c13.23-11.46,37.19-9.37,37.44-9.35l.19.02.19-.02c.24-.02,24.22-2.11,37.44,9.35,4.85,4.21,7.69,9.81,8.46,16.65h-92.17c.77-6.85,3.61-12.44,8.46-16.65ZM1141.45,166.99h21.02v3.38c0,1.1.9,2,2,2h24.17c1.1,0,2-.9,2-2v-7.46h21.88v10.83h-71.07v-6.75ZM1122.56,177.74h106.3v176.91h-106.3v-176.91ZM1063.23,114.91h-16.27l16.27-15.23v15.23ZM1039.12,108.99l3.88,3.31c.17.14.36.24.55.32l-2.44,2.29h-1.99v-5.92ZM1023.42,190.92v-48.46h4.72c1.1,0,2-.9,2-2v-21.55h43.78v21.55c0,1.1.9,2,2,2h4.73v48.46c0,1.1.9,2,2,2h2.71v185.05h-66.65v-185.05h2.71c1.1,0,2-.9,2-2ZM1006.71,147.8h-16.27l16.27-15.22v15.22ZM982.59,141.88l3.88,3.31c.17.15.36.25.56.33l-2.44,2.28h-2v-5.92ZM966.89,223.82v-48.47h4.73c1.1,0,2-.9,2-2v-21.55h43.78v21.55c0,1.1.9,2,2,2,0,0,.01,0,.02,0v13.57h-2.71c-1.1,0-2,.9-2,2v187.05h-52.53v-152.15h2.71c1.1,0,2-.9,2-2ZM949.88,179.47h-16.26l16.26-15.22v15.22ZM925.77,173.55l3.88,3.31c.17.15.36.25.56.33l-2.44,2.28h-2v-5.92ZM905.36,257.49h2.71c1.1,0,2-.9,2-2v-48.47h4.73c1.1,0,2-.9,2-2v-21.55h43.77v21.55c0,1.1.9,2,2,2,.11,0,.22-.02.32-.03v14.83h-2.71c-1.1,0-2,.9-2,2v154.15h-52.82v-120.48ZM771.65,49.72l24.86-14.45v26.95l-24.86,14.45v-26.95ZM796.51,30.65l-24.86,14.45v-1.72l24.86-14.45v1.72ZM771.65,81.3l24.86-14.45v1.72l-24.86,14.45v-1.72ZM796.51,24.3l-24.86,14.45v-7.02l24.86-14.39v6.97ZM771.65,87.65l24.86-14.45v7.72l-24.86,14.39v-7.67ZM781.35,97.7h57.28v279.74h-4.64V105.66c0-1.1-.9-2-2-2h-44c-1.1,0-2,.9-2,2v271.78h-4.64V97.7ZM823.24,34.19l24.86,14.44v26.95l-24.86-14.44v-26.95ZM848.1,44.01l-24.86-14.44v-1.72l24.86,14.44v1.72ZM823.24,65.78l24.86,14.44v1.72l-24.86-14.44v-1.72ZM848.1,37.66l-24.86-14.44v-5.89l24.86,14.39v5.93ZM823.24,72.12l24.86,14.44v8.76l-24.86-14.39v-8.8ZM829.99,377.44h-40V107.66h40v269.78ZM815.47,5.46l40.41,23.34.11,348.65h-13.36V96.78l6.47,3.75c.31.18.66.27,1,.27s.69-.09,1-.27c.62-.36,1-1.02,1-1.73V30.57c0-.71-.38-1.37-1-1.73l-28.86-16.71c-.62-.36-1.38-.36-2,0-.62.36-1,1.02-1,1.73v68.22c0,.71.38,1.37,1,1.73l17.08,9.89h-21.85V5.46ZM804.29,5.46v88.24h-21.86l17.08-9.89c.62-.36,1-1.02,1-1.73V13.86c0-.71-.38-1.38-1-1.73-.62-.36-1.38-.36-2,0l-28.86,16.71c-.62.36-1,1.02-1,1.73v68.22c0,.71.38,1.38,1,1.73.31.18.65.27,1,.27s.69-.09,1-.27l6.7-3.88v280.81h-13.36l-.11-348.65,40.41-23.34ZM732.86,164.73h27v211h-27v-211ZM247.15,162.91h21.88v7.46c0,1.1.9,2,2,2h24.17c1.1,0,2-.9,2-2v-3.38h21.02v6.75h-71.07v-10.83ZM230.81,177.74h106.3v176.91h-106.3v-176.91ZM134.97,241.04h70.99v136.93h-21.28v-7.19c0-1.1-.9-2-2-2h-23.74c-1.1,0-2,.9-2,2v7.19h-21.97v-136.93ZM180.68,377.97h-19.74v-5.19h19.74v5.19ZM49.79,377.97v-7.64h26.08v7.64h-26.08ZM79.87,377.97v-9.64c0-1.1-.9-2-2-2h-30.08c-1.1,0-2,.9-2,2v9.64h-28.9v-174.55h91v174.55h-28.02ZM223.83,377.97v-19.32h120.09v19.32h-120.09ZM377.02,377.97v-6.47h104.77v6.47h-104.77ZM541.88,377.97v-7.64h26.08v7.64h-26.08ZM571.96,377.97v-9.64c0-1.1-.9-2-2-2h-30.08c-1.1,0-2,.9-2,2v9.64h-28.9v-174.55h91v174.55h-28.02ZM636.73,29.33l40.41-23.34v88.25h-21.85l17.07-9.89c.62-.36,1-1.02,1-1.73V14.38c0-.71-.38-1.38-1-1.73-.62-.36-1.38-.36-2,0l-28.85,16.71c-.62.36-1,1.02-1,1.73v68.23c0,.71.38,1.38,1,1.73.31.18.65.27,1,.27s.69-.09,1-.27l6.69-3.87v280.79h-13.36l-.11-348.65ZM644.51,50.24l24.85-14.44v26.95l-24.85,14.44v-26.95ZM669.36,31.18l-24.85,14.44v-1.72l24.85-14.44v1.72ZM644.51,81.82l24.85-14.44v1.72l-24.85,14.44v-1.72ZM669.36,24.83l-24.85,14.44v-7.02l24.85-14.39v6.98ZM644.51,88.17l24.85-14.44v7.72l-24.85,14.39v-7.68ZM686.43,377.97h-23.59V108.18h40v269.79h-16.41ZM706.84,377.97V106.18c0-1.1-.9-2-2-2h-44c-1.1,0-2,.9-2,2v271.79h-4.64V98.23h57.28v279.74h-4.64ZM696.09,34.72l24.86,14.45v26.95l-24.86-14.45v-26.95ZM720.95,44.54l-24.86-14.45v-1.72l24.86,14.45v1.72ZM696.09,66.3l24.86,14.45v1.72l-24.86-14.45v-1.72ZM720.95,38.18l-24.86-14.45v-5.89l24.86,14.39v5.94ZM696.09,72.65l24.86,14.45v8.76l-24.86-14.39v-8.81ZM715.48,377.97V97.31l6.47,3.75c.31.18.66.27,1,.27s.69-.09,1-.27c.62-.36,1-1.02,1-1.73V31.09c0-.71-.38-1.37-1-1.73l-28.86-16.71c-.62-.36-1.38-.36-2,0-.62.36-1,1.02-1,1.73v68.23c0,.71.38,1.37,1,1.73l17.08,9.89h-21.85V5.99l40.41,23.34.11,348.65h-13.36ZM1115.75,377.97v-19.32h120.09v19.32h-120.09ZM1562.48,377.97v-19.32h120.09v19.32h-120.09Z"/>
    </g>
  </g>
</svg>