<?xml version="1.0" encoding="UTF-8"?>
<svg id="_レイヤー_2" data-name="レイヤー 2" xmlns="http://www.w3.org/2000/svg" viewBox="0 0 1793.43 896.19">
  <defs>
    <style>
      .cls-1, .cls-2 {
        opacity: .5;
      }

      .cls-3 {
        font-size: 44px;
        letter-spacing: .58em;
      }

      .cls-3, .cls-4, .cls-5 {
        fill: #fff;
        font-family: PottaOne-Regular, 'Potta One';
      }

      .cls-3, .cls-5 {
        glyph-orientation-vertical: 0deg;
        text-orientation: upright;
        writing-mode: tb;
      }

      .cls-4, .cls-5 {
        font-size: 41px;
        letter-spacing: .33em;
      }

      .cls-6, .cls-2 {
        fill: #4ebaa5;
        stroke-width: 0px;
      }
    </style>
  </defs>
  <g id="_レイヤー_1-2" data-name="レイヤー 1">
    <g>
      <polygon class="cls-2" points="390.52 342.9 428.94 486.29 520.37 461.79 481.95 318.4 481.95 318.4 390.52 342.9"/>
      <polygon class="cls-6" points="155.66 577.11 200.86 762.9 276.09 706.27 348.17 684.56 308.41 536.18 155.66 577.11"/>
      <polygon class="cls-2" points="472.07 647.25 562.75 619.94 524.77 478.21 433.34 502.71 472.07 647.25"/>
      <polygon class="cls-2" points="324.83 531.78 364.45 679.66 455.79 652.15 416.92 507.11 324.83 531.78"/>
      <rect class="cls-6" x="299.6" y="357.11" width="95.34" height="148.45" transform="translate(-99.8 104.58) rotate(-15)"/>
      <polygon class="cls-2" points="369.7 330.88 330.97 186.34 238.24 208.62 277.61 355.55 369.7 330.88"/>
      <polygon class="cls-2" points="477.55 301.98 477.55 301.98 439.57 160.24 347.51 182.37 386.12 326.48 477.55 301.98"/>
      <polygon class="cls-6" points="221.71 212.59 115.68 238.07 0 309.22 138.19 505.33 151.64 560.59 304.01 519.76 221.71 212.59"/>
      <polygon class="cls-2" points="1022.25 415.14 958.75 445.51 934.72 254.21 989.9 250.28 1000.29 333.19 1022.25 415.14"/>
      <path class="cls-6" d="M795.79,147.53l31.1,17.96v17.32l-31.1,17.95c-6.67-3.84-8.33-4.81-15-8.66v-35.91c6.67-3.85,8.33-4.81,15-8.66Z"/>
      <path class="cls-2" d="M920.65,335.84l-36.7-16.6-23.34-195.61-93.55-60.1-30.93,169.66,34.6,328.73,164.97-96.89-15.05-129.19ZM838.89,189.74l-43.1,24.88-27-15.59v-49.76l27-15.59,43.1,24.88v31.18Z"/>
      <rect class="cls-2" x="479.19" y="140.58" width="86.96" height="147.21" transform="translate(-37.62 142.57) rotate(-15)"/>
      <polygon class="cls-2" points="715.41 238.74 602.74 268.93 564.64 126.73 729.27 166.15 715.41 238.74"/>
      <rect class="cls-2" x="521.73" y="299.33" width="86.96" height="147.21" transform="translate(-77.26 158.99) rotate(-15)"/>
      <polygon class="cls-2" points="732.05 422.17 650.28 426.34 612.18 284.14 713.93 256.88 732.05 422.17"/>
      <polygon class="cls-2" points="609.5 689.88 347.15 896.19 287.32 888.88 202.38 780.83 288.14 715.73 565.62 632.65 609.5 689.88"/>
      <polygon class="cls-2" points="755.45 574.44 701.42 617.19 654.72 442.89 736.25 437.85 755.45 574.44"/>
      <polygon class="cls-2" points="680.29 634.44 629.06 674.44 584.8 614.03 546.7 471.84 630.69 449.33 680.29 634.44"/>
      <polygon class="cls-2" points="1114.05 778.86 729.85 819.41 685.29 688.61 783.99 611.41 957.27 499.17 1030.06 465.39 1114.05 778.86"/>
      <polygon class="cls-6" points="950.39 209.46 911.54 253.99 918.35 317.43 899.27 306.7 878.41 131.25 944.04 144.37 950.39 209.46"/>
      <polygon class="cls-2" points="1158.82 240.47 1130.85 268.9 1087.86 108.47 1100.55 94.74 1144.63 108.07 1158.82 240.47"/>
      <polygon class="cls-2" points="1292.95 251.48 1297.15 329.65 1360.24 313.82 1399.5 225.46 1311.51 185.14 1292.95 251.48"/>
      <g class="cls-1">
        <polygon class="cls-6" points="1293.14 204.03 1299.52 179.35 1221.7 144.27 1217.05 197.38 1293.14 204.03"/>
        <polygon class="cls-6" points="1206.63 247.66 1166 244.1 1151.86 259.62 1164.13 289.3 1202.69 292.67 1206.63 247.66"/>
        <polygon class="cls-6" points="1210.55 202.83 1163.32 198.7 1167.39 238.2 1207.15 241.68 1210.55 202.83"/>
        <polygon class="cls-6" points="1213.13 242.2 1281.72 248.2 1291.62 209.92 1216.53 203.35 1213.13 242.2"/>
        <polygon class="cls-6" points="1215.9 141.66 1154.61 114.03 1162.7 192.62 1211.07 196.85 1215.9 141.66"/>
        <polygon class="cls-6" points="1166.72 295.55 1194.1 361.77 1196.72 360.92 1202.17 298.65 1166.72 295.55"/>
        <polygon class="cls-6" points="1202.92 358.91 1285 332.32 1283.92 305.8 1208.15 299.17 1202.92 358.91"/>
        <polygon class="cls-6" points="1208.67 293.2 1283.68 299.76 1281.83 254.24 1212.61 248.18 1208.67 293.2"/>
      </g>
      <path class="cls-6" d="M1785.91,460.53c31.32,116.89-38.05,237.03-154.93,268.35-44.95,12.05-90.39,9.2-131.07-5.51-6.87-2.48-13.59-5.3-20.15-8.45-55.73-26.66-99.89-76.62-117.14-140.97-17.43-65.06-3.68-131.14,32.11-182.33,4.17-5.96,8.64-11.73,13.4-17.27,27.74-32.32,65.18-56.91,109.43-68.77,116.89-31.32,237.03,38.05,268.36,154.94Z"/>
      <polygon class="cls-6" points="1212.28 783.52 1216.14 782.49 1146.61 522.99 1189.18 512.36 1095.61 163.14 1081.39 166.25 1077.95 152.95 1045.71 116 1037.28 118.26 1005.6 0 1001.45 0 1033.42 119.3 1023.97 121.83 991.32 0 987.18 0 1020.1 122.86 1000.58 128.1 1000.71 232.19 1016.58 335.78 1037.19 412.73 1070.09 402.32 1118.19 543.37 1130.77 540 1130.91 536.42 1198.14 787.31 1202 786.27 1132.41 526.53 1142.73 523.96 1212.28 783.52"/>
      <g>
        <path class="cls-2" d="M1358.25,349.16l-79.82,179.26,59.47,221.96,141.06-16.7c-7.8-3.45-15.46-7.34-22.94-11.66-1.47-.85-2.92-1.7-4.36-2.58-52.42-31.73-89.9-81.62-105.81-141-16.35-61.01-7.97-124.74,23.61-179.44,5.89-10.18,12.43-19.82,19.6-28.88,4.36-5.52,8.96-10.82,13.76-15.88l-4.55-17.29-40.03,12.2Z"/>
        <polygon class="cls-2" points="1341.78 354.18 1197.7 398.11 1292.85 755.71 1324.86 751.93 1264.68 527.34 1341.78 354.18"/>
      </g>
      <text class="cls-3" transform="translate(193.04 259.54) rotate(-16.13)"><tspan x="0" y="0">新宿中央</tspan><tspan x="0" y="277.55"> </tspan><tspan x="0" y="320.54">公園</tspan></text>
      <path class="cls-6" d="M826.89,165.49v17.32l-31.1,17.95c-6.67-3.84-8.33-4.81-15-8.66v-35.91c6.67-3.85,8.33-4.81,15-8.66l31.1,17.96Z"/>
      <path class="cls-6" d="M826.89,165.49v17.32l-31.1,17.95c-6.67-3.84-8.33-4.81-15-8.66v-35.91c6.67-3.85,8.33-4.81,15-8.66l31.1,17.96Z"/>
      <text class="cls-5" transform="translate(334.75 385.58) rotate(-14.12)"><tspan x="0" y="0">都庁</tspan></text>
      <text class="cls-5" transform="translate(1056.79 229.58) rotate(-14.12)"><tspan x="0" y="0">新宿駅</tspan></text>
      <text class="cls-4" transform="translate(751.52 259.72)"><tspan x="0" y="0">HAL</tspan></text>
      <text class="cls-5" transform="translate(1570.75 415.25)"><tspan x="0" y="0">新宿御苑</tspan></text>
    </g>
  </g>
</svg>